<svg width="32" height="32" viewBox="0 0 32 32" fill="none" xmlns="http://www.w3.org/2000/svg">
<rect width="32" height="32" rx="16" fill="url(#paint0_linear_721_1821)"/>
<path d="M6.29492 25.3087L7.66683 20.3268C6.81866 18.8646 6.37371 17.2086 6.37835 15.5157C6.37835 10.2109 10.7166 5.89795 16.042 5.89795C18.6282 5.89795 21.0569 6.89893 22.8784 8.71638C24.7045 10.5338 25.7103 12.9509 25.7056 15.5203C25.7056 20.825 21.3674 25.138 16.0373 25.138H16.0327C14.4152 25.138 12.8254 24.7321 11.4118 23.9663L6.29492 25.3087ZM11.6574 22.2273L11.9494 22.4026C13.1823 23.1314 14.5959 23.5143 16.0373 23.5189H16.042C20.4683 23.5189 24.0742 19.9347 24.0742 15.5249C24.0742 13.3892 23.2399 11.3826 21.7243 9.86958C20.2087 8.35658 18.1879 7.52627 16.042 7.52627C11.6157 7.52166 8.00981 11.1058 8.00981 15.5157C8.00981 17.0241 8.43158 18.4955 9.23804 19.7687L9.42807 20.0731L8.61697 23.0207L11.6574 22.2273Z" fill="white"/>
<path d="M6.63281 24.9719L7.95838 20.1608C7.13801 18.7539 6.70697 17.1532 6.70697 15.5203C6.7116 10.4 10.8969 6.23468 16.0415 6.23468C18.5397 6.23468 20.8803 7.20337 22.6415 8.95624C24.4028 10.7091 25.3715 13.0432 25.3715 15.5249C25.3715 20.6451 21.1816 24.8105 16.0415 24.8105H16.0369C14.475 24.8105 12.9408 24.4184 11.5782 23.6803L6.63281 24.9719Z" fill="url(#paint1_linear_721_1821)"/>
<path d="M6.29492 25.3087L7.66683 20.3268C6.81866 18.8646 6.37371 17.2086 6.37835 15.5157C6.37835 10.2109 10.7166 5.89795 16.042 5.89795C18.6282 5.89795 21.0569 6.89893 22.8784 8.71638C24.7045 10.5338 25.7103 12.9509 25.7056 15.5203C25.7056 20.825 21.3674 25.138 16.0373 25.138H16.0327C14.4152 25.138 12.8254 24.7321 11.4118 23.9663L6.29492 25.3087ZM11.6574 22.2273L11.9494 22.4026C13.1823 23.1314 14.5959 23.5143 16.0373 23.5189H16.042C20.4683 23.5189 24.0742 19.9347 24.0742 15.5249C24.0742 13.3892 23.2399 11.3826 21.7243 9.86958C20.2087 8.35658 18.1879 7.52627 16.042 7.52627C11.6157 7.52166 8.00981 11.1058 8.00981 15.5157C8.00981 17.0241 8.43158 18.4955 9.23804 19.7687L9.42807 20.0731L8.61697 23.0207L11.6574 22.2273Z" fill="url(#paint2_linear_721_1821)"/>
<path fill-rule="evenodd" clip-rule="evenodd" d="M13.6273 11.4933C13.4466 11.092 13.2565 11.0828 13.0851 11.0782C12.946 11.0735 12.7838 11.0735 12.6216 11.0735C12.4594 11.0735 12.1998 11.1335 11.9773 11.3734C11.7549 11.6132 11.1338 12.1945 11.1338 13.38C11.1338 14.5608 12.0005 15.7048 12.121 15.8663C12.2415 16.0277 13.7942 18.5325 16.246 19.4965C18.2853 20.2992 18.7025 20.1377 19.1428 20.0962C19.5831 20.0547 20.5703 19.515 20.7742 18.9522C20.9735 18.3895 20.9735 17.9097 20.9133 17.8083C20.853 17.7068 20.6908 17.6468 20.4498 17.5269C20.2088 17.4069 19.0223 16.8257 18.7998 16.7427C18.5773 16.6643 18.4151 16.6228 18.2575 16.8626C18.0953 17.1025 17.6318 17.6422 17.4928 17.8036C17.3537 17.9651 17.2101 17.9835 16.969 17.8636C16.728 17.7437 15.9494 17.49 15.0271 16.6689C14.3087 16.0323 13.822 15.2435 13.6829 15.0037C13.5439 14.7638 13.669 14.6346 13.7895 14.5147C13.8962 14.4086 14.0306 14.2333 14.1511 14.0949C14.2716 13.9566 14.3133 13.8551 14.3921 13.6936C14.4709 13.5322 14.4338 13.3938 14.3735 13.2739C14.3133 13.1585 13.8405 11.9684 13.6273 11.4933Z" fill="white"/>
<defs>
<linearGradient id="paint0_linear_721_1821" x1="15.9992" y1="31.9984" x2="15.9992" y2="-0.0011196" gradientUnits="userSpaceOnUse">
<stop stop-color="#20B038"/>
<stop offset="1" stop-color="#60D66A"/>
</linearGradient>
<linearGradient id="paint1_linear_721_1821" x1="16.0016" y1="24.971" x2="16.0016" y2="6.23402" gradientUnits="userSpaceOnUse">
<stop stop-color="#20B038"/>
<stop offset="1" stop-color="#60D66A"/>
</linearGradient>
<linearGradient id="paint2_linear_721_1821" x1="16.0022" y1="25.3068" x2="16.0022" y2="5.89795" gradientUnits="userSpaceOnUse">
<stop stop-color="#F9F9F9"/>
<stop offset="1" stop-color="white"/>
</linearGradient>
</defs>
</svg>
