<svg width="62" height="62" viewBox="0 0 62 62" fill="none" xmlns="http://www.w3.org/2000/svg">
<rect width="62" height="62" rx="31" fill="url(#paint0_linear_90_683)"/>
<path d="M12.1958 49.0355L14.8539 39.3832C13.2105 36.5501 12.3485 33.3416 12.3574 30.0616C12.3574 19.7836 20.7627 11.4272 31.0807 11.4272C36.0916 11.4272 40.7971 13.3666 44.3262 16.888C47.8643 20.4093 49.813 25.0924 49.804 30.0705C49.804 40.3484 41.3987 48.7048 31.0717 48.7048H31.0628C27.9288 48.7048 24.8486 47.9183 22.1097 46.4347L12.1958 49.0355ZM22.5857 43.0654L23.1514 43.405C25.5401 44.8171 28.279 45.5589 31.0717 45.5678H31.0807C39.6566 45.5678 46.6431 38.6235 46.6431 30.0794C46.6431 25.9415 45.0267 22.0537 42.0902 19.1223C39.1537 16.1908 35.2385 14.5821 31.0807 14.5821C22.5048 14.5732 15.5184 21.5175 15.5184 30.0616C15.5184 32.9841 16.3356 35.8351 17.8981 38.3018L18.2663 38.8916L16.6948 44.6026L22.5857 43.0654Z" fill="white"/>
<path d="M12.8516 48.383L15.4198 39.0614C13.8304 36.3355 12.9952 33.2342 12.9952 30.0704C13.0042 20.15 21.1132 12.0796 31.081 12.0796C35.9212 12.0796 40.4561 13.9564 43.8685 17.3526C47.2809 20.7488 49.1577 25.2711 49.1577 30.0794C49.1577 39.9998 41.0398 48.0702 31.081 48.0702H31.072C28.0457 48.0702 25.0733 47.3105 22.4332 45.8805L12.8516 48.383Z" fill="url(#paint1_linear_90_683)"/>
<path d="M12.1958 49.0355L14.8539 39.3832C13.2105 36.5501 12.3485 33.3416 12.3574 30.0616C12.3574 19.7836 20.7627 11.4272 31.0807 11.4272C36.0916 11.4272 40.7971 13.3666 44.3262 16.888C47.8643 20.4093 49.813 25.0924 49.804 30.0705C49.804 40.3484 41.3987 48.7048 31.0717 48.7048H31.0628C27.9288 48.7048 24.8486 47.9183 22.1097 46.4347L12.1958 49.0355ZM22.5857 43.0654L23.1514 43.405C25.5401 44.8171 28.279 45.5589 31.0717 45.5678H31.0807C39.6566 45.5678 46.6431 38.6235 46.6431 30.0794C46.6431 25.9415 45.0267 22.0537 42.0902 19.1223C39.1537 16.1908 35.2385 14.5821 31.0807 14.5821C22.5048 14.5732 15.5184 21.5175 15.5184 30.0616C15.5184 32.9841 16.3356 35.8351 17.8981 38.3018L18.2663 38.8916L16.6948 44.6026L22.5857 43.0654Z" fill="url(#paint2_linear_90_683)"/>
<path fill-rule="evenodd" clip-rule="evenodd" d="M26.402 22.2684C26.0518 21.4908 25.6836 21.473 25.3514 21.464C25.082 21.4551 24.7677 21.4551 24.4534 21.4551C24.1391 21.4551 23.6362 21.5713 23.2052 22.036C22.7741 22.5007 21.5708 23.6268 21.5708 25.9237C21.5708 28.2117 23.2501 30.4282 23.4835 30.741C23.717 31.0538 26.7253 35.9067 31.4757 37.7746C35.4269 39.3297 36.2351 39.0169 37.0882 38.9365C37.9413 38.856 39.8541 37.8104 40.2492 36.72C40.6353 35.6297 40.6353 34.7002 40.5186 34.5036C40.4019 34.3069 40.0876 34.1908 39.6206 33.9584C39.1536 33.726 36.8548 32.5999 36.4237 32.439C35.9927 32.2871 35.6784 32.2067 35.3731 32.6714C35.0588 33.1362 34.1608 34.1818 33.8914 34.4946C33.622 34.8074 33.3436 34.8432 32.8766 34.6108C32.4097 34.3784 30.901 33.8869 29.114 32.2961C27.7221 31.0627 26.7792 29.5344 26.5098 29.0697C26.2404 28.6049 26.4829 28.3547 26.7163 28.1223C26.9229 27.9168 27.1833 27.5771 27.4168 27.309C27.6503 27.0409 27.7311 26.8443 27.8837 26.5315C28.0364 26.2187 27.9646 25.9506 27.8478 25.7182C27.7311 25.4947 26.8151 23.1889 26.402 22.2684Z" fill="white"/>
<defs>
<linearGradient id="paint0_linear_90_683" x1="30.9984" y1="61.9969" x2="30.9984" y2="-0.00216922" gradientUnits="userSpaceOnUse">
<stop stop-color="#20B038"/>
<stop offset="1" stop-color="#60D66A"/>
</linearGradient>
<linearGradient id="paint1_linear_90_683" x1="31.0037" y1="48.3812" x2="31.0037" y2="12.0783" gradientUnits="userSpaceOnUse">
<stop stop-color="#20B038"/>
<stop offset="1" stop-color="#60D66A"/>
</linearGradient>
<linearGradient id="paint2_linear_90_683" x1="31.0036" y1="49.0319" x2="31.0036" y2="11.4272" gradientUnits="userSpaceOnUse">
<stop stop-color="#F9F9F9"/>
<stop offset="1" stop-color="white"/>
</linearGradient>
</defs>
</svg>
