<svg width="18" height="23" viewBox="0 0 18 23" fill="none" xmlns="http://www.w3.org/2000/svg">
<path d="M8.64006 0.811279C7.51469 0.811741 6.4005 1.03446 5.36143 1.46664C4.32236 1.89882 3.37887 2.53196 2.58513 3.32972C1.79138 4.12748 1.16301 5.07415 0.736073 6.11538C0.309136 7.15662 0.0920452 8.27193 0.0972597 9.39728C0.0972597 15.3301 6.21726 20.7697 8.10006 22.2097C8.25811 22.3402 8.45669 22.4116 8.66166 22.4116C8.86663 22.4116 9.06521 22.3402 9.22326 22.2097C11.1097 20.7265 17.1793 15.3301 17.1793 9.39728C17.1845 8.27223 16.9675 7.15722 16.5408 6.11622C16.1141 5.07521 15.486 4.12871 14.6927 3.331C13.8993 2.53329 12.9562 1.90007 11.9176 1.46767C10.8789 1.03528 9.76512 0.812215 8.64006 0.811279ZM8.64006 12.9469C7.92805 12.9469 7.23202 12.7357 6.64001 12.3402C6.04799 11.9446 5.58657 11.3824 5.31409 10.7245C5.04162 10.0667 4.97032 9.34289 5.10923 8.64455C5.24814 7.94622 5.59101 7.30476 6.09448 6.8013C6.59794 6.29783 7.2394 5.95496 7.93773 5.81605C8.63607 5.67715 9.35991 5.74844 10.0177 6.02091C10.6755 6.29339 11.2378 6.75481 11.6334 7.34683C12.0289 7.93884 12.2401 8.63487 12.2401 9.34688C12.2401 10.3017 11.8608 11.2173 11.1856 11.8925C10.5105 12.5676 9.59484 12.9469 8.64006 12.9469Z" fill="#007B99"/>
</svg>
