<svg width="28" height="28" viewBox="0 0 28 28" fill="none" xmlns="http://www.w3.org/2000/svg">
<path d="M15.4209 14.25H21.8157V27.75H15.4209V14.25Z" fill="#007B99"/>
<path d="M6.89453 14.25H11.8682V19.2237H6.89453V14.25Z" fill="#007B99"/>
<path fill-rule="evenodd" clip-rule="evenodd" d="M15.6576 5.09232H23.988L23.9871 5.09277L23.1579 5.50737V6.43437V26.2502H4.84212V6.43437V5.50737L4.01292 5.09277L4.01203 5.09232H5.78975C5.85695 4.5617 6.00777 4.05714 6.22857 3.59229H2H0.5V5.01335L0.657897 5.09232L3.3421 6.43437V24.7502V26.2502H2H1.8421H0.5V27.7502H2H3.3421H4.84212H23.1579H24.6579H26H27.5V26.2502H26.1579H26H24.6579V24.7502V6.43437L27.3421 5.09232L27.5 5.01335V3.59229H26H15.2188C15.4396 4.05714 15.5904 4.5617 15.6576 5.09232Z" fill="#007B99"/>
<path fill-rule="evenodd" clip-rule="evenodd" d="M15.6974 5.7237C15.6974 8.47057 13.4706 10.6974 10.7237 10.6974C7.97682 10.6974 5.75 8.47057 5.75 5.7237C5.75 2.9768 7.97682 0.75 10.7237 0.75C13.4706 0.75 15.6974 2.9768 15.6974 5.7237ZM9.98952 3H11.6948V4.98945H13.6842V6.69472H11.6948V8.68425H9.98952V6.69472H8V4.98945H9.98952V3Z" fill="#007B99"/>
</svg>
