<svg width="46" height="46" viewBox="0 0 46 46" fill="none" xmlns="http://www.w3.org/2000/svg">
<path d="M46 23C46 35.7025 35.7025 46 23 46C10.2975 46 0 35.7025 0 23C0 10.2975 10.2975 0 23 0C35.7025 0 46 10.2975 46 23Z" fill="#FD6A01"/>
<path fill-rule="evenodd" clip-rule="evenodd" d="M16.7896 13.0118C16.3699 12.0445 15.9287 12.0222 15.5306 12.0111C15.2077 12 14.8311 12 14.4544 12C14.0778 12 13.4751 12.1445 12.9586 12.7227C12.442 13.3008 11 14.7018 11 17.5592C11 20.4055 13.0124 23.1628 13.2922 23.552C13.572 23.9411 17.1771 29.9784 22.8698 32.3021C27.6049 34.2367 28.5734 33.8476 29.5957 33.7475C30.6181 33.6474 32.9102 32.3466 33.3837 30.9902C33.8465 29.6337 33.8465 28.4774 33.7066 28.2328C33.5667 27.9882 33.19 27.8437 32.6304 27.5546C32.0709 27.2655 29.3159 25.8646 28.7994 25.6645C28.2828 25.4754 27.9062 25.3754 27.5403 25.9535C27.1636 26.5317 26.0875 27.8325 25.7647 28.2217C25.4418 28.6108 25.1082 28.6553 24.5486 28.3662C23.989 28.0771 22.1811 27.4656 20.0396 25.4866C18.3716 23.9522 17.2416 22.051 16.9188 21.4728C16.5959 20.8947 16.8865 20.5834 17.1663 20.2943C17.4138 20.0386 17.7259 19.6161 18.0057 19.2825C18.2855 18.949 18.3823 18.7044 18.5653 18.3152C18.7482 17.9261 18.6621 17.5925 18.5222 17.3035C18.3823 17.0255 17.2847 14.157 16.7896 13.0118Z" fill="white"/>
</svg>
