<svg width="47" height="48" viewBox="0 0 47 48" fill="none" xmlns="http://www.w3.org/2000/svg">
<path d="M46.6682 24.2328C46.6682 28.8479 45.2996 33.3594 42.7356 37.1967C40.1716 41.034 36.5273 44.0248 32.2635 45.7909C27.9997 47.557 23.308 48.0191 18.7815 47.1188C14.2551 46.2184 10.0973 43.996 6.83399 40.7327C3.57062 37.4693 1.34824 33.3115 0.447885 28.7851C-0.452475 24.2587 0.0096221 19.5669 1.77574 15.3032C3.54186 11.0394 6.53268 7.39505 10.37 4.83104C14.2073 2.26703 18.7187 0.898499 23.3338 0.898499C26.3981 0.898499 29.4324 1.50206 32.2635 2.67472C35.0945 3.84738 37.6669 5.56617 39.8337 7.73296C42.0005 9.89975 43.7193 12.4721 44.8919 15.3032C46.0646 18.1342 46.6682 21.1685 46.6682 24.2328ZM36.8239 17.3861C36.8224 16.8957 36.6269 16.4258 36.2801 16.079C35.9333 15.7322 35.4634 15.5367 34.973 15.5351H15.6471L14.362 12.5878C14.274 12.3866 14.1293 12.2154 13.9456 12.095C13.7619 11.9746 13.5471 11.9103 13.3275 11.9099H9.12752C8.82735 11.9099 8.53948 12.0291 8.32723 12.2414C8.11497 12.4536 7.99573 12.7415 7.99573 13.0417C7.99573 13.3418 8.11497 13.6297 8.32723 13.842C8.53948 14.0542 8.82735 14.1734 9.12752 14.1734H12.5848L17.8458 26.2459C17.7618 26.2259 17.6758 26.216 17.5894 26.2164C16.6819 26.2164 15.8115 26.5769 15.1698 27.2186C14.528 27.8604 14.1675 28.7307 14.1675 29.6383C14.1675 30.5458 14.528 31.4162 15.1698 32.0579C15.8115 32.6997 16.6819 33.0602 17.5894 33.0602H17.7132C17.2914 33.3347 16.9697 33.7381 16.7958 34.2103C16.622 34.6826 16.6054 35.1983 16.7486 35.6807C16.8918 36.1632 17.187 36.5864 17.5902 36.8874C17.9935 37.1884 18.4833 37.351 18.9865 37.351C19.4897 37.351 19.9794 37.1884 20.3827 36.8874C20.786 36.5864 21.0812 36.1632 21.2243 35.6807C21.3675 35.1983 21.3509 34.6826 21.1771 34.2103C21.0033 33.7381 20.6815 33.3347 20.2597 33.0602H30.434C30.0123 33.3347 29.6905 33.7381 29.5167 34.2103C29.3429 34.6826 29.3263 35.1983 29.4694 35.6807C29.6126 36.1632 29.9078 36.5864 30.3111 36.8874C30.7144 37.1884 31.2041 37.351 31.7073 37.351C32.2105 37.351 32.7003 37.1884 33.1035 36.8874C33.5068 36.5864 33.802 36.1632 33.9452 35.6807C34.0883 35.1983 34.0718 34.6826 33.8979 34.2103C33.7241 33.7381 33.4023 33.3347 32.9806 33.0602H34.6458C34.7991 33.068 34.9524 33.0446 35.0964 32.9913C35.2403 32.938 35.3719 32.8561 35.4832 32.7503C35.5945 32.6446 35.6831 32.5173 35.7436 32.3763C35.8041 32.2352 35.8354 32.0834 35.8354 31.9299C35.8354 31.7764 35.8041 31.6245 35.7436 31.4834C35.6831 31.3424 35.5945 31.2151 35.4832 31.1094C35.3719 31.0037 35.2403 30.9217 35.0964 30.8684C34.9524 30.8152 34.7991 30.7917 34.6458 30.7996H17.5865C17.2789 30.7996 16.9839 30.6774 16.7664 30.4599C16.5489 30.2424 16.4267 29.9474 16.4267 29.6398C16.4267 29.3322 16.5489 29.0372 16.7664 28.8197C16.9839 28.6022 17.2789 28.48 17.5865 28.48C17.684 28.4798 17.7811 28.467 17.8753 28.4417L34.9789 26.6673C35.4804 26.6044 35.9425 26.3631 36.2808 25.9876C36.619 25.612 36.8108 25.1272 36.821 24.6219L36.8239 17.3861Z" fill="#007B99"/>
</svg>
