<svg width="22" height="45" viewBox="0 0 22 45" fill="none" xmlns="http://www.w3.org/2000/svg">
<path d="M0.0321383 17.0493C0.0321383 15.053 -0.0401729 13.0567 0.0321383 11.0604C0.321383 4.99473 4.73236 0.157546 10.228 0.0039845C16.0852 -0.149577 20.8578 4.15014 21.2916 10.3694C21.5809 14.7459 21.5809 19.2759 21.2916 23.6524C20.8578 29.7949 15.8683 34.325 10.3003 34.0178C4.58774 33.7107 0.249072 28.9503 0.0321383 22.7311C-0.0401729 20.8883 0.0321383 18.9688 0.0321383 17.0493ZM18.9777 17.0493C18.9777 15.053 18.9777 13.0567 18.9777 11.0604C18.9054 6.37678 15.1452 2.53775 10.6619 2.53775C6.17859 2.53775 2.49072 6.37678 2.41841 11.0604C2.3461 14.9762 2.3461 18.9688 2.41841 22.8846C2.49072 27.645 6.17859 31.4073 10.6619 31.4841C15.2175 31.4841 18.9054 27.7218 18.9777 22.8846C19.05 20.9651 18.9777 18.9688 18.9777 17.0493Z" fill="#878787"/>
<path d="M10.7342 41.8495C12.0358 40.3906 13.1928 39.1621 14.3498 37.8569C14.9283 37.1658 15.5791 36.8587 16.3022 37.6265C16.953 38.3175 16.6637 39.0086 16.0853 39.6228C14.639 41.1584 13.1928 42.694 11.7466 44.2297C11.0235 44.9975 10.3727 44.9975 9.72187 44.2297C8.27564 42.694 6.75711 41.0817 5.31088 39.546C4.80471 38.9318 4.58777 38.3175 5.16626 37.7033C5.81706 37.0123 6.46786 37.2426 7.04635 37.8569C8.20333 39.0854 9.36031 40.3138 10.7342 41.8495Z" fill="#878787"/>
<path d="M11.8912 10.139C11.8912 10.7533 12.0358 11.4443 11.8189 11.9818C11.602 12.5192 11.0958 13.0567 10.5896 13.1335C10.3004 13.2103 9.57726 12.4425 9.50495 12.0585C9.36033 10.7533 9.36033 9.37123 9.50495 8.06596C9.57726 7.68205 10.2281 6.99103 10.6619 6.99103C11.0235 6.99103 11.602 7.60527 11.7466 8.06596C12.0358 8.75698 11.8912 9.44801 11.8912 10.139Z" fill="#878787"/>
</svg>
