<svg width="144" height="162" viewBox="0 0 144 162" fill="none" xmlns="http://www.w3.org/2000/svg">
<path d="M53.5185 17.887C54.3486 15.0627 54.7843 12.4631 55.8528 10.166C59.274 2.81639 67.185 -1.12207 75.1648 0.280918C82.8189 1.6243 88.7441 7.99276 89.588 15.9384C89.7577 17.5386 90.4089 17.9237 91.904 17.9099C100.067 17.8503 108.23 17.8182 116.394 17.9008C129.991 18.0383 140.764 26.9147 143.341 40.0964C143.731 42.1 143.805 44.1907 143.809 46.2402C143.837 75.3728 143.855 104.505 143.818 133.638C143.8 147.324 136.21 157.622 123.603 161.005C121.062 161.689 118.329 161.936 115.687 161.941C86.4695 162.005 57.2516 162.023 28.0337 161.959C13.8856 161.927 3.27803 153.362 0.540138 139.883C0.118219 137.81 0.0356691 135.642 0.031083 133.514C-0.00101956 104.382 -0.0147798 75.249 0.0219089 46.1164C0.0402532 31.7702 8.81801 20.8489 22.324 18.3226C24.4061 17.9329 26.5707 17.9054 28.7032 17.8916C37.0132 17.8457 45.3232 17.8733 53.5277 17.8733L53.5185 17.887ZM35.7337 26.768C31.4182 27.0018 27.0614 26.7038 22.9477 27.5658C14.2617 29.3814 9.01979 36.6348 9.01062 46.0109C8.98769 75.2169 8.98769 104.423 9.01062 133.629C9.01979 145.109 16.2475 152.794 27.7081 152.853C57.1507 153.009 86.5979 153 116.04 152.858C127.501 152.803 134.779 145.132 134.816 133.698C134.839 125.463 134.82 117.229 134.82 108.989C134.82 88.018 134.798 67.0511 134.834 46.0797C134.848 39.7204 132.601 34.5165 127.533 30.5689C121.617 25.9611 114.756 27.0615 108.079 27.0294C106.891 33.4712 102.571 36.0892 96.8844 36.0112C80.104 35.782 63.3189 35.8003 46.5431 36.0112C41.4479 36.0754 36.8481 33.4803 35.7291 26.7634L35.7337 26.768Z" fill="#007B99"/>
<path d="M66.75 114.354C72.1157 106.289 77.3071 98.4854 82.494 90.6818C88.0248 82.3648 93.5648 74.0523 99.0818 65.7307C100.302 63.8921 101.801 62.5671 104.177 63.0485C107.639 63.75 108.887 67.1795 106.8 70.3339C101.214 78.7931 95.5826 87.2294 89.9601 95.6656C84.0028 104.615 78.0271 113.551 72.079 122.501C69.2586 126.742 66.6261 127.04 63.0352 123.441C54.684 115.074 46.3419 106.702 38.0044 98.3203C35.6564 95.9591 35.3995 93.419 37.2798 91.4704C39.1739 89.5081 42.0539 89.6594 44.3653 91.9656C51.2215 98.8063 58.0364 105.693 64.8697 112.556C65.3971 113.088 65.9566 113.593 66.75 114.354Z" fill="#007B99"/>
</svg>
