<svg width="260" height="76" viewBox="0 0 260 76" fill="none" xmlns="http://www.w3.org/2000/svg">
<path d="M91.0479 39.3808H88.9901L87.0907 40.9581H86.7075V39.3808H85.3301V43.9384H86.6964V42.1241H87.1018L89.0957 43.9384H91.1117L88.2876 41.5384L91.0479 39.3808Z" fill="#878787"/>
<path d="M125.069 39.3808H122.989L121.112 40.9581H120.704V39.3808H119.352V43.9384H120.698V42.1241H121.123L123.117 43.9384H125.133L122.303 41.5356L125.069 39.3808Z" fill="#878787"/>
<path d="M148.671 39.3808H146.572L144.694 40.9581H144.306V39.3808H142.953V43.9384H144.3V42.1241H144.678L146.699 43.9384H148.699L145.886 41.5302L148.671 39.3808Z" fill="#878787"/>
<path d="M92.3034 42.3176C92.3034 42.7044 92.1645 42.7807 91.9535 42.7807H91.6758V43.9385C91.6758 43.9385 92.234 43.9385 92.5255 43.9112C92.8171 43.8867 93.1365 43.7587 93.3086 43.5081C93.478 43.2574 93.6502 42.9305 93.6502 42.2767V40.5332H95.7607V43.9357H97.1159V39.3782H92.3034V42.3121V42.3176Z" fill="#878787"/>
<path d="M99.8106 42.6662V39.3808H98.4609V43.9384H100.485L102.976 40.6666V43.9384H104.331V39.3808H102.36L99.8106 42.6662Z" fill="#878787"/>
<path d="M127.325 42.6662V39.3808H125.973V43.9384H128L130.488 40.6666V43.9384H131.846V39.3808H129.872L127.325 42.6662Z" fill="#878787"/>
<path d="M226.776 42.6662V39.3808H225.424V43.9384H227.451L229.939 40.6666V43.9384H231.297V39.3808H229.323L226.776 42.6662Z" fill="#878787"/>
<path d="M240.866 42.6662V39.3808H239.514V43.9384H241.541L244.029 40.6666V43.9384H245.387V39.3808H243.413L240.866 42.6662Z" fill="#878787"/>
<path d="M113.429 42.6662V39.3808H112.076V43.9384H114.103L116.594 40.6666V43.9384H117.949V39.3808H115.975L113.429 42.6662Z" fill="#878787"/>
<path d="M109.39 41.018H107.024V39.3808H105.672V43.9384H107.024V42.1595H109.379V43.9384H110.737V39.3808H109.39V41.018Z" fill="#878787"/>
<path d="M153.414 39.3345H150.893C150.893 39.3345 149.457 39.3345 149.457 40.7429V42.6689C149.457 42.6689 149.457 43.922 150.734 43.922H153.523C153.523 43.922 154.853 43.922 154.853 42.6171V42.1595H153.506V42.3556C153.506 42.7724 153.081 42.7724 153.081 42.7724H151.234C150.809 42.7724 150.809 42.3556 150.809 42.3556V40.9499C150.809 40.4814 151.287 40.4814 151.287 40.4814H153.078C153.503 40.4814 153.503 40.8982 153.503 40.8982V41.1215H154.85V40.7429C154.85 40.7429 154.85 39.3345 153.414 39.3345Z" fill="#878787"/>
<path d="M190.684 39.3345H188.162C188.162 39.3345 186.727 39.3345 186.727 40.7429V42.6689C186.727 42.6689 186.727 43.922 188.004 43.922H190.792C190.792 43.922 192.122 43.922 192.122 42.6171V40.7429C192.122 40.7429 192.122 39.3345 190.687 39.3345H190.684ZM190.775 42.3556C190.775 42.7724 190.351 42.7724 190.351 42.7724H188.504C188.079 42.7724 188.079 42.3556 188.079 42.3556V40.9499C188.079 40.4814 188.557 40.4814 188.557 40.4814H190.348C190.773 40.4814 190.773 40.8982 190.773 40.8982V42.3556H190.775Z" fill="#878787"/>
<path d="M140.216 39.3346H137.694C137.694 39.3346 136.259 39.3346 136.259 40.743V41.1053H137.608V40.95C137.608 40.4815 138.086 40.4815 138.086 40.4815H139.877C140.302 40.4815 140.302 40.8983 140.302 40.8983V41.1162H137.941V42.1459H140.302V42.3557C140.302 42.7725 139.877 42.7725 139.877 42.7725H138.03C137.605 42.7725 137.605 42.3557 137.605 42.3557V42.1514H136.256V42.6663C136.256 42.6663 136.256 43.9194 137.533 43.9194H140.321C140.321 43.9194 141.652 43.9194 141.652 42.6145V40.7403C141.652 40.7403 141.652 39.3318 140.216 39.3318" fill="#878787"/>
<path d="M156.088 43.9468H157.443V40.5388H159.806V43.9468H161.156V39.3919H156.088V43.9468Z" fill="#878787"/>
<path d="M163.853 42.1679H167.147V41.119H163.853V40.5034H167.247V39.3919H162.518V43.9468H167.258V42.8353H163.853V42.1679Z" fill="#878787"/>
<path d="M213.685 42.1679H216.976V41.119H213.685V40.5034H217.079V39.3919H212.35V43.9468H217.09V42.8353H213.685V42.1679Z" fill="#878787"/>
<path d="M171.726 39.3919H168.561V43.9468H169.921V42.6828C169.921 42.6828 171.479 42.6773 171.921 42.6773C172.362 42.6773 172.809 42.4785 173.048 42.1815C173.287 41.8846 173.356 41.4514 173.356 41.0483C173.356 40.6451 173.298 40.3291 173.176 40.0839C173.054 39.8387 172.751 39.3892 171.724 39.3892L171.726 39.3919ZM171.474 41.5277H169.91V40.5416H171.474C171.951 40.5416 172.001 40.7077 172.001 41.0047C172.001 41.3016 171.993 41.5277 171.474 41.5277Z" fill="#878787"/>
<path d="M256.514 40.9445C256.073 40.9445 254.515 40.9445 254.515 40.9445V39.3726H253.154V43.9329H256.32C257.348 43.9329 257.65 43.5243 257.772 43.3009C257.895 43.0775 257.953 42.7888 257.953 42.4237C257.953 42.0587 257.883 41.6637 257.645 41.394C257.406 41.1243 256.959 40.9418 256.517 40.9418L256.514 40.9445ZM256.07 42.7779H254.507V42.1023H256.07C256.589 42.1023 256.595 42.1894 256.595 42.4591C256.595 42.7288 256.548 42.7779 256.07 42.7779Z" fill="#878787"/>
<path d="M174.375 40.5388H176.194V43.9468H177.535V40.5388H179.354V39.3919H174.375V40.5388Z" fill="#878787"/>
<path d="M184.107 41.0019H181.739V39.3919H180.395V43.9468H181.739V42.1488H184.107V43.9468H185.451V39.3919H184.107V41.0019Z" fill="#878787"/>
<path d="M197.959 39.3919H197.337L194.787 42.6637V39.3919H193.443V43.9468H193.988H194.787H195.454L197.959 40.6886V43.9468H199.303V39.3919H198.034H197.959Z" fill="#878787"/>
<path d="M207.408 42.6281L206.036 39.3918H203.867V43.9466H205.217V40.8519L206.583 43.9466H208.249L209.61 40.8274V43.9466H210.962V39.3836H208.766L207.408 42.6281Z" fill="#878787"/>
<path d="M260 39.3836H258.664V43.9385H260V39.3836Z" fill="#878787"/>
<path d="M223.716 39.3646H219.087V41.544C219.087 41.544 219.103 41.9172 218.981 42.2523C218.859 42.5873 218.662 42.7699 218.662 42.7699H218.268V44.9547H219.539V43.9413H222.955V44.9547H224.199V42.7862H223.716V39.3673V39.3646ZM222.38 42.7835H220.15C220.15 42.7835 220.284 42.5792 220.336 42.3095C220.389 42.0371 220.395 41.5576 220.395 41.5576V40.5306H222.378V42.7862L222.38 42.7835Z" fill="#878787"/>
<path d="M237.695 39.3726H236.346V42.7833H233.982V39.3808H232.633V43.9166H236.912V44.9518H238.178V42.7915H237.695V39.3726Z" fill="#878787"/>
<path d="M250.453 41.0101H248.076V39.3919H246.734V43.9468H248.076V42.157H250.453V43.9468H251.794V39.3919H250.453V41.0101Z" fill="#878787"/>
<path d="M194.854 38.1034C195.071 38.2696 195.401 38.3295 195.72 38.3486C195.982 38.3649 196.156 38.3704 196.212 38.3704C196.268 38.3704 196.443 38.3677 196.704 38.3486C197.023 38.3268 197.353 38.2696 197.57 38.1034C197.789 37.9372 197.862 37.6131 197.862 37.4087V37.1254H196.701C196.701 37.1254 196.695 37.2044 196.695 37.2889C196.695 37.3733 196.684 37.4986 196.59 37.5341C196.515 37.564 196.312 37.5667 196.229 37.5667H196.193C196.109 37.5667 195.907 37.564 195.832 37.5341C195.734 37.4986 195.726 37.3733 195.726 37.2889C195.726 37.2044 195.72 37.1254 195.72 37.1254H194.562V37.4087C194.562 37.6131 194.637 37.9345 194.854 38.1034Z" fill="#878787"/>
<path d="M108.496 35.6734H112.712V18.3829H104.864L99.0213 32.2355H98.7658L92.9259 18.3829H85.0781V35.6734H89.2936V21.8209H89.8517L95.8972 35.6734H101.893L107.935 21.8209H108.494V35.6734H108.496ZM115.914 35.6734H133.92V32.4098H120.129V28.4488H133.489V25.4332H120.129V21.6465H133.92V18.3829H115.914V35.6734ZM143.095 32.2573C143.467 31.1867 144.075 29.435 144.38 28.5306C144.841 27.1739 145.33 25.1526 146.413 24.0629C147.496 22.9732 148.69 22.6518 151.212 22.6518H153.267V32.2573H143.092H143.095ZM136.555 35.6952H157.493L157.485 18.4211H150.945C149.293 18.4211 147.61 18.4211 145.766 19.3255C143.922 20.23 141.876 22.3439 141.006 25.0055C140.418 26.8116 139.088 30.7699 138.588 32.2573H136.558V35.6952H136.555ZM165.061 21.8209H175.957V18.3829H160.845V35.6734H165.061V21.8209ZM191.689 27.0404C191.689 29.9335 189.298 32.2791 186.349 32.2791C183.4 32.2791 181.009 29.9335 181.009 27.0404C181.009 24.1473 183.4 21.8018 186.349 21.8018C189.298 21.8018 191.689 24.1473 191.689 27.0404ZM195.46 27.0404C195.46 22.1042 191.381 18.1024 186.349 18.1024C181.317 18.1024 177.238 22.1042 177.238 27.0404C177.238 31.9767 181.317 35.9785 186.349 35.9785C191.381 35.9785 195.46 31.9767 195.46 27.0404ZM212.741 24.4361C212.741 26.3049 212.133 27.1276 209.998 27.1276H202.964V21.8209H209.998C212.208 21.8209 212.741 22.7417 212.741 24.4361ZM216.957 24.4361C216.957 20.0774 215.204 18.3829 210.759 18.3829H198.745V35.6734H202.961V30.5655H210.809C215.152 30.5655 216.954 28.8221 216.954 24.4361H216.957ZM234.499 27.0404C234.499 29.9335 232.108 32.2791 229.159 32.2791C226.21 32.2791 223.819 29.9335 223.819 27.0404C223.819 24.1473 226.21 21.8018 229.159 21.8018C232.108 21.8018 234.499 24.1473 234.499 27.0404ZM238.27 27.0404C238.27 22.1042 234.191 18.1024 229.159 18.1024C224.127 18.1024 220.048 22.1042 220.048 27.0404C220.048 31.9767 224.127 35.9785 229.159 35.9785C234.191 35.9785 238.27 31.9767 238.27 27.0404ZM255.784 32.2573H245.612C245.984 31.1867 246.59 29.435 246.898 28.5306C247.359 27.1739 247.848 25.1526 248.931 24.0629C250.014 22.9732 251.208 22.6518 253.729 22.6518H255.782V32.2573H255.784ZM260 35.6952V18.4211H253.46C251.808 18.4211 250.125 18.4211 248.281 19.3255C246.437 20.23 244.39 22.3439 243.521 25.0055C242.933 26.8116 241.602 30.7699 241.1 32.2573H239.07V35.6952H259.997H260Z" fill="#007B99"/>
<path d="M32.449 75.4003V54.7809L25.0844 58.7855V43.8433H0V42.1298H26.8311V55.8788L32.449 52.825V42.1298H37.342V52.1248L34.1957 53.8356V72.6326L44.1984 67.7372V64.9585L39.4247 63.0379V42.1161H45.9451V63.8116L47.8917 64.5962V42.1352H77.1361V43.8487H49.6385V67.1515L45.9451 65.6641V68.8023L32.449 75.4085V75.4003ZM41.1742 61.8829L44.2011 63.1006V43.8215H41.1742V61.8802V61.8829ZM34.1985 43.8406V51.8715L35.5981 51.1114V43.8406H34.1985Z" fill="#B2B2B2"/>
<path d="M77.0833 35.7278H47.5529V13.433L44.1956 12.5613V35.7278H37.8224V8.38779L41.713 9.39574V3.82204L31.5992 8.43955V20.7148L36.0729 18.3774V35.7278H29.1138V24.7711L27.1755 25.7818V35.7251H0V33.2869H24.6929V24.3161L29.1138 22.006V6.88404L44.1956 0V10.0414L50.0383 11.556V33.2896H77.0833V35.7278ZM40.305 33.2896H41.7102V11.9183L40.305 11.5533V33.2896ZM31.5964 33.2896H33.5848V22.4337L31.5964 23.4716V33.2896Z" fill="#007B99"/>
</svg>
