<svg width="132" height="132" viewBox="0 0 132 132" fill="none" xmlns="http://www.w3.org/2000/svg">
<path d="M60.1651 30.2404C60.9961 28.1193 59.9506 25.7259 57.8292 24.8946C55.7084 24.0634 53.3149 25.109 52.4837 27.2301L60.1651 30.2404ZM74.261 59.1338C76.5391 59.1299 78.3827 57.2803 78.3794 55.0022C78.3756 52.7239 76.5259 50.8801 74.2478 50.8837L74.261 59.1338ZM56.3244 28.7352L55.2921 24.7414L55.2844 24.7435L56.3244 28.7352ZM103.206 56.0648L99.2222 57.1345C99.5528 58.3649 100.433 59.3736 101.608 59.8675C102.782 60.3614 104.119 60.2844 105.23 59.6596L103.206 56.0648ZM104.191 70.9148L105.722 67.0846C104.537 66.6105 103.199 66.7122 102.099 67.359C100.999 68.0064 100.261 69.1256 100.099 70.3917L104.191 70.9148ZM27.8123 70.9148L31.904 70.3917C31.7422 69.1256 31.0036 68.0064 29.9036 67.359C28.8036 66.7122 27.4662 66.6105 26.2812 67.0846L27.8123 70.9148ZM28.7968 56.0648L26.7734 59.6596C27.8839 60.2844 29.2209 60.3614 30.3955 59.8675C31.5702 59.3736 32.4506 58.3643 32.7809 57.134L28.7968 56.0648ZM52.4837 27.2301C48.2058 38.1457 52.6758 50.5417 62.9354 56.2149L66.9317 48.9977C60.2932 45.3266 57.3969 37.3034 60.1651 30.2404L52.4837 27.2301ZM62.9354 56.2149C66.4015 58.1372 70.2972 59.1404 74.261 59.1338L74.2478 50.8837C71.6881 50.8878 69.1702 50.2387 66.9317 48.9977L62.9354 56.2149ZM57.3562 32.729C75.6437 28.0034 94.3239 38.8929 99.2222 57.1345L107.19 54.9949C101.118 32.3822 77.9614 18.8835 55.2921 24.7414L57.3562 32.729ZM105.23 59.6596C106.905 58.7163 109.009 59.0557 110.303 60.4769L116.403 54.9224C112.521 50.6587 106.208 49.6416 101.183 52.4701L105.23 59.6596ZM110.303 60.4769C111.597 61.8981 111.738 64.0249 110.643 65.6045L117.423 70.3048C120.709 65.566 120.286 59.186 116.403 54.9224L110.303 60.4769ZM110.643 65.6045C109.548 67.1841 107.507 67.7979 105.722 67.0846L102.66 74.745C108.014 76.8856 114.137 75.0436 117.423 70.3048L110.643 65.6045ZM100.099 70.3917C97.9055 87.5517 83.3014 100.408 66.0017 100.408V108.658C87.4533 108.658 105.563 92.7162 108.282 71.4378L100.099 70.3917ZM66.0017 100.408C48.7019 100.408 34.0976 87.5517 31.904 70.3917L23.7206 71.4378C26.4406 92.7162 44.55 108.658 66.0017 108.658V100.408ZM26.2812 67.0846C24.4964 67.7979 22.4553 67.1841 21.3602 65.6045L14.5803 70.3048C17.8658 75.0436 23.9889 76.8856 29.3434 74.745L26.2812 67.0846ZM21.3602 65.6045C20.265 64.0249 20.406 61.8981 21.7001 60.4769L15.6001 54.9224C11.7177 59.186 11.2947 65.566 14.5803 70.3048L21.3602 65.6045ZM21.7001 60.4769C22.9942 59.0557 25.0984 58.7163 26.7734 59.6596L30.8201 52.4701C25.795 49.6416 19.4824 50.6587 15.6001 54.9224L21.7001 60.4769ZM32.7809 57.134C35.9909 45.1697 45.3776 35.8505 57.3645 32.727L55.2844 24.7435C40.4264 28.6153 28.7915 40.1664 24.8127 54.9958L32.7809 57.134Z" fill="#717171"/>
<path d="M49.5039 68.7588C47.9876 68.7588 46.7539 67.5251 46.7539 66.0088C46.7539 64.4924 47.9876 63.2588 49.5039 63.2588C51.0203 63.2588 52.2539 64.4924 52.2539 66.0088C52.2539 67.5251 51.0203 68.7588 49.5039 68.7588Z" fill="#717171"/>
<path d="M49.5039 71.5088C46.4664 71.5088 44.0039 69.0464 44.0039 66.0088C44.0039 62.9711 46.4664 60.5088 49.5039 60.5088C52.5414 60.5088 55.0037 62.9711 55.0037 66.0088C55.0037 69.0464 52.5414 71.5088 49.5039 71.5088Z" fill="#717171"/>
<path d="M82.5039 68.7588C80.9876 68.7588 79.7539 67.5251 79.7539 66.0088C79.7539 64.4924 80.9876 63.2588 82.5039 63.2588C84.0203 63.2588 85.2539 64.4924 85.2539 66.0088C85.2539 67.5251 84.0203 68.7588 82.5039 68.7588Z" fill="#717171"/>
<path d="M82.5039 71.5088C79.4668 71.5088 77.0039 69.0464 77.0039 66.0088C77.0039 62.9711 79.4668 60.5088 82.5039 60.5088C85.5416 60.5088 88.0039 62.9711 88.0039 66.0088C88.0039 69.0464 85.5416 71.5088 82.5039 71.5088Z" fill="#717171"/>
</svg>
