<svg width="27" height="27" viewBox="0 0 27 27" fill="none" xmlns="http://www.w3.org/2000/svg">
<path d="M5.625 24.75H21.375C22.2701 24.75 23.1285 24.3944 23.7615 23.7615C24.3944 23.1285 24.75 22.2701 24.75 21.375V5.625C24.75 4.72989 24.3944 3.87145 23.7615 3.23851C23.1285 2.60558 22.2701 2.25 21.375 2.25H5.625C4.72989 2.25 3.87145 2.60558 3.23851 3.23851C2.60558 3.87145 2.25 4.72989 2.25 5.625V21.375C2.25 22.2701 2.60558 23.1285 3.23851 23.7615C3.87145 24.3944 4.72989 24.75 5.625 24.75ZM21.375 22.5H5.625C5.32663 22.5 5.04048 22.3815 4.8295 22.1705C4.61853 21.9595 4.5 21.6734 4.5 21.375V14.625H9C9.22467 14.6249 9.44418 14.5576 9.63025 14.4317C9.81632 14.3058 9.96042 14.127 10.044 13.9185L11.25 10.9035L14.7049 19.5435C14.7882 19.7526 14.9323 19.932 15.1186 20.0583C15.305 20.1846 15.5249 20.2522 15.75 20.2522C15.9751 20.2522 16.195 20.1846 16.3814 20.0583C16.5677 19.932 16.7118 19.7526 16.7951 19.5435L18.7616 14.625H22.5V21.375C22.5 21.6734 22.3815 21.9595 22.1705 22.1705C21.9595 22.3815 21.6734 22.5 21.375 22.5ZM5.625 4.5H21.375C21.6734 4.5 21.9595 4.61853 22.1705 4.8295C22.3815 5.04048 22.5 5.32663 22.5 5.625V12.375H18C17.775 12.3749 17.5552 12.4423 17.3689 12.5684C17.1825 12.6946 17.0383 12.8737 16.9549 13.0826L15.75 16.0954L12.2951 7.4565C12.2116 7.24772 12.0675 7.06876 11.8813 6.94269C11.6951 6.81663 11.4754 6.74925 11.2506 6.74925C11.0257 6.74925 10.806 6.81663 10.6198 6.94269C10.4336 7.06876 10.2895 7.24772 10.206 7.4565L8.23837 12.375H4.5V5.625C4.5 5.32663 4.61853 5.04048 4.8295 4.8295C5.04048 4.61853 5.32663 4.5 5.625 4.5Z" fill="#007B99"/>
</svg>
