<svg width="38" height="48" viewBox="0 0 38 48" fill="none" xmlns="http://www.w3.org/2000/svg">
<path d="M10.5565 9.02958C11.4464 8.33031 12.5271 8.1396 13.6078 7.94889C16.6592 7.50391 19.6469 6.99535 22.6983 6.55036C25.4953 6.10537 28.356 5.66038 31.1531 5.2154C31.2166 5.2154 31.3438 5.2154 31.4073 5.2154C31.5345 5.34254 31.6616 5.46968 31.7887 5.59682C31.8523 5.72395 31.9795 5.72395 32.043 5.59682C32.1702 5.46968 32.2973 5.34254 32.4244 5.15183C32.5516 5.15183 32.6787 5.08826 32.8059 5.08826C35.7301 5.40611 37.955 7.82176 37.955 10.746C37.955 12.5895 37.955 14.4966 37.955 16.3401C37.955 19.9 37.955 23.5235 37.955 27.0834C37.955 29.8169 36.1751 32.1054 33.5051 32.6775C32.6787 32.8682 31.8523 32.8047 31.0259 32.6775C29.246 32.4232 27.466 32.1054 25.6861 31.8511C24.0332 31.5968 22.3169 31.3426 20.664 31.0883C20.0919 31.0247 19.5834 31.1518 19.1384 31.5333C17.2949 33.1861 15.4513 34.7753 13.6714 36.4281C13.6078 36.4917 13.6078 36.4917 13.4807 36.5553C13.4807 36.4281 13.4807 36.301 13.4807 36.2374C13.4807 34.3939 13.4807 32.5504 13.4807 30.7069C13.4807 30.1347 13.29 29.8805 12.7178 29.8169C10.2386 29.3719 8.33152 27.2741 8.07724 24.7949C8.07724 24.5406 8.01367 24.2863 8.01367 24.032C8.01367 20.5357 8.01367 17.0394 8.01367 13.543C8.01367 12.5895 8.26795 11.6995 8.71294 10.8731C8.77651 10.746 8.90365 10.5553 9.03079 10.4281C9.09436 10.301 9.2215 10.2374 9.28507 10.1103C9.73005 9.85599 10.175 9.411 10.5565 9.02958ZM20.0283 20.8535C20.0283 20.9807 20.0283 21.0443 20.0283 21.1714C20.0283 22.6335 20.0283 24.0956 20.0283 25.5577C20.0283 25.812 20.0919 25.8756 20.3462 25.8756C21.2997 26.0027 22.3169 26.0663 23.2704 26.1934C23.6518 26.257 24.0332 26.257 24.4782 26.3205C24.4782 24.5406 24.4782 22.7606 24.4782 20.9807C26.4489 21.0443 28.356 21.1078 30.3266 21.1714C30.3266 19.5822 30.3266 18.0565 30.3266 16.5308C28.356 16.5944 26.4489 16.6579 24.4782 16.7215C24.4782 14.9416 24.4782 13.1616 24.4782 11.3817C24.2875 11.3817 24.1604 11.3817 24.0332 11.4452C22.7618 11.5724 21.554 11.7631 20.2826 11.8902C20.0919 11.8902 20.0283 11.9538 20.0283 12.2081C20.0283 13.6702 20.0283 15.1958 20.0283 16.6579C20.0283 16.7215 20.0283 16.8487 20.0283 16.9758C19.9012 16.9758 19.8376 16.9758 19.7105 16.9758C18.3755 17.0394 16.977 17.0394 15.642 17.1029C15.4513 17.1029 15.3878 17.1665 15.3878 17.3572C15.3878 18.4379 15.3878 19.5186 15.3878 20.5993C15.3878 20.6628 15.3878 20.79 15.3878 20.8535C16.9134 20.79 18.4391 20.79 20.0283 20.8535Z" fill="#007B99"/>
<path d="M8.2682 47.9342C8.14106 47.9342 8.01392 47.9978 7.95035 47.9978C6.42468 47.9978 4.83544 47.9342 3.30976 47.9978C1.59338 48.0614 0.703405 46.7264 0.576265 45.5822C0.576265 45.3915 0.512695 45.2007 0.512695 45.01C0.512695 31.0247 0.512695 17.1029 0.512695 3.11759C0.512695 2.35475 0.639835 1.65548 1.14839 1.01979C1.65695 0.38409 2.29265 0.00267237 3.11905 0.00267237C8.77676 0.00267237 14.4345 0.00267237 20.0922 0.00267237C21.3 0.00267237 22.5714 0.0662421 23.7792 0.00267237C25.3049 -0.0608974 26.1949 1.01979 26.4491 2.16404C26.5127 2.54546 26.5127 2.99045 26.5127 3.43544C26.5127 4.00756 26.5127 4.57969 26.5127 5.08825C26.5127 5.21539 26.4491 5.27896 26.322 5.34253C25.7499 5.4061 25.1777 5.53324 24.5421 5.59681C24.5421 5.27896 24.5421 4.96111 24.5421 4.64326C24.5421 4.1347 24.2878 3.88043 23.7792 3.88043C21.1729 3.88043 18.6301 3.88043 16.0237 3.88043C11.7645 3.88043 7.56893 3.88043 3.30976 3.88043C2.67407 3.88043 2.41979 4.07113 2.41979 4.7704C2.41979 8.58458 2.41979 12.3988 2.41979 16.213C2.41979 16.7851 2.41979 17.2936 2.41979 17.8658C2.41979 18.12 2.41979 18.3743 2.41979 18.6922C2.41979 23.2692 2.41979 27.8462 2.41979 32.4232C2.41979 32.9318 2.35622 33.5039 2.35622 34.0125C2.35622 35.6017 2.35622 37.2545 2.41979 38.8438C2.41979 39.4159 2.67407 39.6066 3.18262 39.6066C5.5347 39.6066 7.88678 39.6066 10.2389 39.6066C10.366 39.6066 10.4931 39.6702 10.6203 39.6702C11.256 40.3059 11.8917 40.9416 12.5274 41.5773C12.4638 41.6408 12.4002 41.6408 12.4002 41.6408C11.701 41.8316 11.3195 42.3401 11.256 43.0394C11.256 43.6115 11.256 44.1201 11.256 44.6922C11.256 44.7558 11.256 44.8193 11.256 44.8829C10.8746 45.2643 10.4931 45.6457 10.1117 46.0271C9.47603 46.7264 8.84033 47.2985 8.2682 47.9342ZM13.4173 2.29118C14.3709 2.29118 15.3244 2.29118 16.2144 2.29118C16.4687 2.29118 16.6594 2.16404 16.6594 1.90976C16.6594 1.71905 16.4687 1.59192 16.2144 1.59192C14.3709 1.59192 12.4638 1.59192 10.6203 1.59192C10.3024 1.59192 10.1753 1.71905 10.1753 1.90976C10.1753 2.16404 10.366 2.29118 10.6203 2.29118C11.5738 2.29118 12.5274 2.29118 13.4173 2.29118Z" fill="#007B99"/>
<path d="M16.5319 39.6702C16.659 39.6702 16.7862 39.6066 16.9133 39.6066C19.1383 39.6066 21.3632 39.6066 23.5881 39.6066C23.7153 39.6066 23.7789 39.6066 23.906 39.6066C24.351 39.6066 24.6053 39.3523 24.6053 38.9074C24.6053 38.081 24.6053 37.2545 24.6053 36.4917C24.6053 35.2203 24.6053 33.9489 24.6053 32.6775C24.6053 32.614 24.6053 32.4868 24.6053 32.3597C25.0502 32.4232 25.4952 32.4868 25.9402 32.5504C26.5759 32.6775 26.5759 32.6775 26.5759 33.3132C26.5759 37.191 26.5759 41.1323 26.5759 45.0101C26.5759 45.8365 26.3216 46.5993 25.7495 47.235C25.3045 47.68 24.7324 47.9343 24.0967 47.9343C22.5075 47.9343 20.9182 47.9343 19.329 47.9343C19.2654 47.9343 19.1383 47.8707 19.0747 47.8707C18.5026 47.2986 17.9304 46.7264 17.3583 46.1543C16.8498 45.6458 16.3412 45.2008 15.8326 44.6922C15.8326 44.5651 15.8326 44.5015 15.8326 44.3744C15.8326 43.9294 15.8326 43.4844 15.8326 43.103C15.8326 42.4673 15.5148 42.0223 14.9427 41.768C14.8791 41.768 14.8155 41.7044 14.752 41.6409C15.1969 40.9416 15.8326 40.3059 16.5319 39.6702Z" fill="#007B99"/>
<path d="M15.6427 44.6922C16.1513 45.2008 16.6599 45.6457 17.1684 46.1543C17.7405 46.7264 18.3127 47.2986 18.8848 47.8707C18.8212 47.8707 18.7577 47.9343 18.6941 47.9343C18.2491 47.9343 17.8041 47.9343 17.3591 47.9343C14.3713 47.9343 11.4471 47.9343 8.45936 47.9343C8.39579 47.9343 8.26865 47.9343 8.20508 47.8707C8.84078 47.235 9.47647 46.6629 10.0486 46.0272C10.43 45.6457 10.8114 45.2643 11.1929 44.8829C11.2564 44.9465 11.2564 44.9465 11.32 45.01C11.5743 45.6457 12.0828 45.9 12.7185 45.9C13.1635 45.9 13.6721 45.9 14.1171 45.9C14.8163 45.9 15.3885 45.455 15.5156 44.7558C15.6427 44.7558 15.6427 44.7558 15.6427 44.6922Z" fill="#007B99"/>
<path d="M16.5319 39.6702C15.8962 40.3059 15.2605 40.9416 14.6248 41.5773L14.5613 41.6409C13.9891 41.6409 13.417 41.6409 12.9084 41.6409C12.8449 41.6409 12.7813 41.5773 12.6542 41.5773C12.0185 40.9416 11.3828 40.3059 10.7471 39.6702C10.8106 39.6702 10.8742 39.6066 10.9378 39.6066C12.7813 39.6066 14.6248 39.6066 16.4048 39.6066C16.4048 39.6066 16.4683 39.6702 16.5319 39.6702Z" fill="#007B99"/>
<path d="M32.4878 5.15182C32.3607 5.27896 32.2335 5.4061 32.1064 5.59681C32.0428 5.72395 31.9157 5.66038 31.8521 5.59681C31.725 5.46967 31.5978 5.34253 31.4707 5.21539C31.7886 5.08825 32.1064 5.02468 32.4878 5.15182Z" fill="#007B99"/>
<path d="M10.5569 9.0296C10.1119 9.47459 9.73052 9.85601 9.28553 10.301C9.22196 10.3646 9.09482 10.4917 9.03125 10.6188C9.03125 10.5553 9.03125 10.4917 9.09482 10.4917C9.47624 9.91958 9.92123 9.47459 10.4934 9.09317C10.4934 9.0296 10.5569 9.0296 10.5569 9.0296Z" fill="#007B99"/>
<path d="M14.8164 43.8658C14.8164 44.1836 14.88 44.4379 14.8164 44.7558C14.7529 45.01 14.5622 45.2007 14.2443 45.2643C13.6722 45.2643 13.1636 45.3279 12.5915 45.2643C12.0829 45.2643 11.8287 44.7558 12.0194 44.1836C12.1465 44.0565 12.3372 43.8658 12.4644 43.7386C12.8458 43.3572 13.1636 43.0394 13.545 42.658C13.99 43.0394 14.435 43.4208 14.8164 43.8658Z" fill="#007B99"/>
<path d="M13.6076 42.5944C13.2262 42.9758 12.9084 43.2936 12.527 43.6751C12.3998 43.8022 12.2091 43.9929 12.082 44.1201C12.082 43.6751 12.0184 43.2936 12.082 42.8487C12.082 42.7215 12.2727 42.4672 12.4634 42.4037C12.8448 42.2765 13.2262 42.2765 13.5441 42.4672C13.6076 42.5308 13.6076 42.5944 13.6076 42.5944Z" fill="#007B99"/>
<path d="M13.6075 42.5944C13.6075 42.5309 13.6075 42.5309 13.5439 42.4673C13.6711 42.4037 13.8618 42.3401 13.9889 42.3401C14.6246 42.3401 14.8789 42.5944 14.8789 43.2301C14.8789 43.4208 14.8789 43.6115 14.8153 43.8022C14.4339 43.4208 13.9889 43.0394 13.6075 42.5944Z" fill="#007B99"/>
</svg>
