<svg width="51" height="48" viewBox="0 0 51 48" fill="none" xmlns="http://www.w3.org/2000/svg">
<path d="M25.7698 48C21.164 48 16.5583 48 11.9525 48C8.30629 48 6.06738 45.5691 6.06738 41.6031C6.06738 36.1657 6.06738 30.6644 6.06738 25.2271C6.06738 22.8602 6.96295 21.0691 8.75407 19.7257C13.9995 15.8876 19.245 12.0495 24.4264 8.21134C25.4499 7.44371 26.2815 7.44371 27.305 8.21134C32.5505 12.1134 37.7959 15.9516 43.1053 19.7897C44.8965 21.0691 45.7281 22.8602 45.7281 25.2271C45.7281 30.7284 45.7281 36.2297 45.7281 41.731C45.7281 45.5691 43.4252 48 39.9069 48C35.1732 48 30.4395 48 25.7698 48ZM33.0622 44.0339C35.3651 44.0339 37.604 44.0339 39.779 44.0339C41.3782 44.0339 42.0179 43.3302 42.0179 41.6031C42.0179 36.1657 42.0179 30.7923 42.0179 25.355C42.0179 24.3315 41.698 23.5639 40.8664 22.9881C36.0688 19.4699 31.2711 15.9516 26.4734 12.4333C25.9617 12.0495 25.5779 12.0495 25.0661 12.4333C20.3324 15.9516 15.5348 19.4699 10.7371 22.9242C9.84154 23.5639 9.5217 24.3315 9.5217 25.4829C9.58567 30.4725 9.5217 35.3981 9.5217 40.3877C9.5217 43.842 9.71361 44.0979 12.912 44.0979C14.7671 44.0979 16.6222 44.0979 18.5413 44.0979C18.5413 41.4112 18.5413 38.9164 18.5413 36.4216C18.5413 32.8393 20.8442 30.3446 24.1706 30.2806C25.1941 30.2806 26.2815 30.2806 27.305 30.2806C30.6314 30.2806 32.9343 32.7754 32.9343 36.4856C33.0622 38.9164 33.0622 41.4112 33.0622 44.0339ZM22.2515 43.9699C24.7463 43.9699 27.0492 43.9699 29.416 43.9699C29.416 41.2832 29.416 38.7245 29.416 36.1657C29.416 35.0143 28.7124 34.2467 27.6249 34.2467C26.4095 34.1827 25.258 34.1827 24.0426 34.2467C22.9552 34.3106 22.2515 35.0143 22.2515 36.1657C22.1875 38.7245 22.2515 41.2832 22.2515 43.9699Z" fill="#007B99"/>
<path d="M36.6452 6.93198C36.6452 6.03642 36.6452 5.26879 36.6452 4.56514C36.7091 2.32623 38.1804 0.727005 40.2274 0.663036C40.3554 0.663036 40.5473 0.663036 40.6752 0.663036C44.3214 0.343192 45.8567 2.3902 45.6648 6.03642C45.5368 8.3393 45.6008 10.6422 45.6648 12.9451C45.6648 13.4568 45.9846 14.0965 46.3684 14.4163C47.5199 15.3759 48.7353 16.2714 49.9507 17.167C51.0382 17.9986 51.294 19.0861 50.6543 20.1096C50.0146 21.0691 48.9911 21.197 47.9037 20.4294C41.123 15.3119 34.3423 10.1304 27.5616 5.01292C25.9624 3.79751 25.6425 3.79751 24.0433 5.01292C17.4545 10.0665 10.8017 15.056 4.21295 20.1096C3.89311 20.3654 3.57326 20.6853 3.18945 20.8132C2.35785 21.197 1.52626 21.0051 1.01451 20.1096C0.502756 19.278 0.566725 18.3824 1.20641 17.6148C1.46229 17.3589 1.71816 17.167 1.97404 16.9111C8.69077 11.7936 15.4715 6.67611 22.1882 1.5586C24.747 -0.360465 26.794 -0.424434 29.3527 1.5586C31.3997 3.09385 33.5107 4.69307 35.5577 6.22833C35.8775 6.42023 36.1974 6.61214 36.6452 6.93198ZM41.9546 10.962C41.9546 8.85105 41.9546 6.80405 41.9546 4.69307C41.3789 4.69307 40.8031 4.69307 40.2274 4.69307C40.2274 5.84451 40.3554 6.99595 40.2274 8.08342C40.0355 9.61868 40.6752 10.4503 41.9546 10.962Z" fill="#007B99"/>
</svg>
