<svg width="48" height="48" viewBox="0 0 48 48" fill="none" xmlns="http://www.w3.org/2000/svg">
<path d="M0 47.9374C0 46.9988 0 46.2478 0 45.3092C1.056 45.184 2.112 45.1214 3.3 44.9963C3.3 44.3079 3.3 43.8073 3.3 43.2441C3.3 35.1716 3.3 27.0365 3.3 18.964C3.3 18.4008 2.706 17.775 2.442 17.2118C2.178 16.6486 1.782 15.9602 1.848 15.4596C1.914 15.0841 2.772 14.5835 3.3 14.5835C5.544 14.4584 7.788 14.521 10.032 14.521C10.692 14.521 11.286 14.521 12.21 14.521C11.22 9.8902 12.078 5.94781 15.708 2.81893C17.952 0.879021 20.592 -0.0596443 23.628 0.00293333C27.588 0.065511 30.756 1.56737 33.066 4.5711C35.376 7.51225 35.772 10.8289 34.914 14.521C37.818 14.521 40.458 14.4584 43.098 14.5835C43.89 14.5835 44.616 15.1467 45.408 15.397C45.078 16.0854 44.682 16.7112 44.352 17.3995C44.154 17.7124 43.89 18.0879 43.89 18.4008C43.89 27.0991 43.89 35.7974 43.89 44.5582C43.89 44.6834 43.956 44.746 44.088 45.0588C45.012 45.1214 45.936 45.2466 47.058 45.3092C47.058 46.1852 47.058 46.9988 47.058 48C31.482 47.9374 15.84 47.9374 0 47.9374ZM6.732 17.3995C6.6 17.7124 6.534 17.9001 6.534 18.0253C6.534 26.661 6.468 35.2967 6.534 43.995C6.534 44.3705 7.392 45.0588 7.854 45.0588C10.428 45.184 13.068 45.0588 15.642 45.1214C16.764 45.1214 17.094 44.6834 17.028 43.6821C16.962 42.1177 17.094 40.5533 17.028 38.9888C16.962 37.6121 17.622 37.0489 19.008 37.0489C22.11 37.1115 25.146 37.1115 28.248 37.0489C29.7 37.0489 30.294 37.6747 30.294 38.9888C30.294 40.3655 30.426 41.6797 30.294 43.0564C30.096 44.8711 30.888 45.3092 32.604 45.184C34.65 45.0588 36.762 45.0588 38.808 45.184C40.458 45.3092 40.92 44.6834 40.92 43.1815C40.854 35.2342 40.92 27.3494 40.854 19.402C40.854 18.7762 40.788 18.213 40.722 17.3995C38.94 17.3995 37.29 17.4621 35.64 17.3995C34.188 17.3369 33.132 17.7124 32.142 18.7762C27.39 23.5947 19.404 23.3444 14.784 18.4008C14.388 18.0253 13.926 17.4621 13.464 17.4621C11.154 17.3369 8.91 17.3995 6.732 17.3995ZM23.562 2.88151C18.744 2.88151 14.916 6.57359 14.916 11.1418C14.916 15.5848 18.876 19.2769 23.562 19.2143C28.248 19.2143 32.208 15.4596 32.208 11.0792C32.274 6.57359 28.38 2.88151 23.562 2.88151ZM20.196 40.1152C20.196 41.7422 20.196 43.3067 20.196 44.9963C22.44 44.9963 24.684 44.9963 26.928 44.9963C26.928 43.3067 26.928 41.7422 26.928 40.1152C24.618 40.1152 22.506 40.1152 20.196 40.1152Z" fill="#007B99"/>
<path d="M26.796 24.0954C26.796 25.0966 26.796 25.9101 26.796 26.9739C24.882 26.9739 22.968 27.0365 21.054 26.9114C20.79 26.9114 20.394 25.785 20.394 25.2218C20.394 24.8463 20.922 24.1579 21.252 24.1579C23.034 24.0328 24.882 24.0954 26.796 24.0954Z" fill="#007B99"/>
<path d="M30.624 26.9739C30.624 25.9101 30.624 25.034 30.624 24.0328C32.538 24.0328 34.32 24.0328 36.102 24.0328C37.356 24.0328 37.158 24.9714 37.026 25.5972C36.894 26.0978 36.432 26.8488 36.036 26.9113C34.386 27.0991 32.604 26.9739 30.624 26.9739Z" fill="#007B99"/>
<path d="M30.6899 30.7286C32.8019 30.7286 34.8479 30.7286 36.8939 30.7286C37.6199 33.3568 37.4219 33.5446 34.6499 33.5446C33.3959 33.5446 32.0759 33.5446 30.6899 33.5446C30.6899 32.4808 30.6899 31.6672 30.6899 30.7286Z" fill="#007B99"/>
<path d="M16.5002 24.0328C16.5002 25.0966 16.5002 25.9101 16.5002 26.8488C14.4542 26.8488 12.4742 26.8488 10.4942 26.8488C9.70217 24.3457 9.96617 24.0328 12.4742 24.0328C13.7282 24.0328 15.0482 24.0328 16.5002 24.0328Z" fill="#007B99"/>
<path d="M26.7959 30.7911C26.7959 31.6672 26.7959 32.4807 26.7959 33.482C24.8819 33.482 23.0339 33.6697 21.1859 33.3568C20.6579 33.2942 20.3279 31.9175 19.7339 30.7911C22.4399 30.7911 24.5519 30.7911 26.7959 30.7911Z" fill="#007B99"/>
<path d="M16.5 30.7286C16.5 31.6672 16.5 32.4807 16.5 33.3568C14.388 33.3568 12.408 33.3568 10.23 33.3568C10.23 32.4807 10.23 31.6672 10.23 30.7286C12.408 30.7286 14.388 30.7286 16.5 30.7286Z" fill="#007B99"/>
<path d="M10.3618 37.1115C11.3518 37.1115 12.2098 37.1115 13.1998 37.1115C13.1998 38.0502 13.1998 38.9263 13.1998 39.8649C12.2098 39.8649 11.3518 39.8649 10.3618 39.8649C10.3618 39.0514 10.3618 38.1753 10.3618 37.1115Z" fill="#007B99"/>
<path d="M37.0262 39.9275C36.0362 39.9275 35.2442 39.9275 34.1882 39.9275C34.1222 39.0514 34.1222 38.1753 34.0562 37.1741C35.1122 37.1741 36.0362 37.1741 37.0262 37.1741C37.0262 38.0502 37.0262 38.9262 37.0262 39.9275Z" fill="#007B99"/>
<path d="M21.9778 9.45214C22.0438 8.38832 22.1098 7.51223 22.1098 6.51099C23.0998 6.51099 24.0238 6.51099 24.8818 6.51099C25.3438 9.32698 25.3438 9.32698 28.4458 9.70245C28.4458 10.516 28.4458 11.392 28.4458 12.3307C27.3898 12.4559 26.0698 12.3307 25.4098 12.8313C24.8818 13.332 25.0798 14.5835 24.9478 15.6473C24.0238 15.6473 23.1658 15.6473 22.1098 15.6473C22.0438 15.1467 21.9778 14.7087 22.0438 14.3332C22.2418 12.9565 21.6478 12.3307 20.1958 12.5184C18.8758 12.7062 18.6118 12.0178 18.6118 10.954C18.6118 9.8276 19.1398 9.51471 20.2618 9.57729C20.7898 9.57729 21.3178 9.45214 21.9778 9.45214Z" fill="#007B99"/>
</svg>
