<svg width="74" height="74" viewBox="0 0 74 74" fill="none" xmlns="http://www.w3.org/2000/svg">
<g clip-path="url(#clip0_1952_17488)">
<path d="M36.8524 73.9926C57.2011 73.9926 73.697 57.4967 73.697 37.148C73.697 16.7993 57.2011 0.303406 36.8524 0.303406C16.5037 0.303406 0.0078125 16.7993 0.0078125 37.148C0.0078125 57.4967 16.5037 73.9926 36.8524 73.9926Z" fill="#E4F3F2"/>
<path d="M59.9764 59.9178C58.6888 55.352 55.1294 51.7778 50.571 50.4754L42.1572 48.0704H31.5456L23.1318 50.4754C18.566 51.7778 15.0066 55.352 13.7264 59.9178L11.4102 63.7806C18.0258 70.1002 26.9798 73.9926 36.8514 73.9926C46.723 73.9926 55.6844 70.1002 62.2926 63.7806L59.9764 59.9178Z" fill="#383838"/>
<path d="M41.8094 41.2994H31.8934L30.332 49.4764C30.332 49.4764 33.1292 52.4068 36.8514 52.5622C40.5736 52.4068 43.3708 49.4764 43.3708 49.4764L41.8094 41.2994Z" fill="#EFF1F1"/>
<path d="M47.9352 29.822C47.9352 36.5264 42.9698 45.51 36.8426 45.51C30.7154 45.51 25.75 36.5338 25.75 29.822C25.75 23.1102 30.7154 17.6786 36.8426 17.6786C42.9698 17.6786 47.9352 23.1176 47.9352 29.822Z" fill="white"/>
<path d="M27.1584 30.7618C27.1066 32.0716 26.3296 33.7958 25.449 33.7662C24.5758 33.7292 23.9394 31.9458 23.9912 30.636C24.043 29.3262 24.7978 28.2902 25.671 28.3272C26.5442 28.3642 27.2102 29.452 27.1584 30.7618Z" fill="white"/>
<path d="M49.4974 30.6434C49.5418 31.9532 48.8906 33.7366 48.0174 33.7662C47.1442 33.7958 46.3746 32.0642 46.3302 30.7544C46.2858 29.4446 46.9592 28.3568 47.8324 28.3272C48.7056 28.2976 49.453 29.3336 49.4974 30.6434Z" fill="white"/>
<path d="M28.2804 18.1522C26.386 22.4812 34.119 22.2518 36.2946 21.9928C36.8348 21.9262 37.4342 21.7486 37.9744 21.8448C38.5738 21.9484 39.1584 22.2592 39.7726 22.3554C41.1268 22.5626 42.5254 22.459 43.8278 22.0372C44.1238 21.941 44.4568 21.83 44.738 21.9706C44.9082 22.052 45.0266 22.2148 45.1302 22.3702C45.6408 23.1102 46.1144 23.8872 46.3512 24.753C46.6842 25.9814 46.514 27.2764 46.4474 28.5418C46.4104 29.3262 46.3512 32.1086 47.365 32.2936C47.5204 30.9764 47.6684 29.6518 47.8238 28.3272C47.8238 28.3272 48.9264 24.346 48.5342 22.2592C47.9274 19.0032 45.5668 14.9628 36.1466 15.0664C29.5976 15.133 28.273 18.1448 28.2656 18.1596L28.2804 18.1522Z" fill="#383838"/>
<path d="M30.9906 20.4462C30.9684 20.5498 30.924 20.646 30.8278 20.7422C30.5984 20.9716 30.2654 21.0308 29.962 21.1492C29.0074 21.5192 28.4228 22.4516 27.9048 23.3322C27.5718 23.8946 27.2314 24.4866 27.187 25.1452C27.1278 26.0406 27.631 26.825 27.7494 27.6908C27.8456 28.3716 27.6828 29.0006 27.4904 29.6444C27.4016 29.9478 26.743 32.56 26.2028 32.2936L25.744 28.3272C25.744 28.3272 24.6414 24.346 25.0336 22.2592C25.411 20.2464 26.4026 17.7896 28.9112 18.4778C29.4218 18.6184 31.1238 19.6692 30.9832 20.4536L30.9906 20.4462Z" fill="#383838"/>
</g>
<defs>
<clipPath id="clip0_1952_17488">
<rect width="74" height="74" fill="white"/>
</clipPath>
</defs>
</svg>
