<svg width="28" height="25" viewBox="0 0 28 25" fill="none" xmlns="http://www.w3.org/2000/svg">
<path d="M12.4322 17.8959C11.9202 19.0799 11.9842 20.3279 11.9842 21.5439C11.9202 21.5439 11.8562 21.5439 11.7922 21.5439C8.75223 21.5439 5.68023 21.5439 2.64023 21.5439C1.71223 21.5439 1.04023 21.0639 0.592234 20.2959C0.336234 19.9119 0.240234 19.4639 0.240234 18.9839C0.240234 13.7679 0.240234 8.51991 0.240234 3.30391C0.240234 2.11991 0.912234 1.19191 2.00023 0.807914C2.19223 0.743914 2.38423 0.711914 2.57623 0.711914C7.98423 0.711914 13.4242 0.711914 18.8322 0.711914C19.6642 0.711914 20.6242 1.41591 20.9442 2.21591C21.1042 2.56791 21.1682 2.95191 21.1682 3.36791C21.1682 6.37591 21.1682 9.41591 21.1682 12.4239C21.1682 12.4879 21.1682 12.5839 21.1682 12.6799C21.1042 12.6799 21.0082 12.6799 20.9442 12.6799C19.8562 12.6799 18.7362 12.7119 17.6482 12.6799C16.3042 12.6479 15.2802 13.1919 14.6402 14.3759C14.4802 14.6639 14.2882 14.9839 14.0962 15.2719C14.0642 15.3359 13.9682 15.3999 13.9042 15.3999C13.6482 15.3999 13.3922 15.3999 13.1362 15.3999C12.3362 15.3999 11.7282 16.0399 11.7922 16.8399C11.8242 17.2559 11.9842 17.6079 12.3682 17.8319C12.3682 17.8319 12.4002 17.8639 12.4322 17.8959ZM8.65623 12.8079C8.75223 12.8079 8.81623 12.8079 8.88023 12.8079C9.87223 12.8079 10.8962 12.8079 11.8882 12.7759C12.5922 12.7439 13.2962 12.6799 13.9362 12.3599C14.9602 11.8799 15.6642 11.0799 15.9842 9.99191C16.2402 9.15991 16.2402 8.29591 16.0162 7.43191C15.7922 6.43991 15.2162 5.67191 14.3842 5.12791C13.6802 4.67991 12.8802 4.58391 12.0482 4.58391C10.0962 4.55191 8.14423 4.55191 6.22423 4.55191C6.12823 4.55191 6.06423 4.55191 5.96823 4.55191C5.96823 8.99991 5.96823 13.3839 5.96823 17.8319C6.86423 17.8319 7.76023 17.8319 8.65623 17.8319C8.65623 16.1359 8.65623 14.4719 8.65623 12.8079Z" fill="#F8FEFF"/>
<path d="M13.5204 17.4798C13.2644 17.3838 13.0084 17.3198 12.7524 17.2238C12.5604 17.1598 12.4324 16.9038 12.4644 16.6798C12.5284 16.3918 12.7204 16.1358 12.9444 16.1358C13.3604 16.1358 13.7764 16.1038 14.1924 16.1358C14.3524 16.1358 14.4484 16.0718 14.5124 15.9438C14.8004 15.4638 15.0884 14.9838 15.4084 14.5038C15.8564 13.7998 16.4964 13.4478 17.3284 13.4478C19.2164 13.4478 21.0724 13.4158 22.9604 13.4478C23.7924 13.4478 24.4324 13.8318 24.8804 14.5678C25.1684 15.0478 25.4884 15.5278 25.7764 16.0078C25.8404 16.1038 25.9364 16.1678 26.0644 16.1678C26.4484 16.1678 26.8324 16.1998 27.1844 16.1678C27.6644 16.1358 27.9524 16.7438 27.7284 17.0638C27.6324 17.1918 27.5044 17.2558 27.3444 17.3198C27.1524 17.4158 26.9604 17.4478 26.7364 17.5118C26.8964 17.7998 27.0884 18.0878 27.2164 18.3758C27.4404 18.8238 27.4724 19.3358 27.5044 19.8478C27.5364 20.4558 27.5364 21.0638 27.5364 21.7038C27.5364 22.5998 27.5364 23.4638 27.5364 24.3598C27.5364 24.6478 27.4084 24.7758 27.1204 24.7758C26.6084 24.7758 26.0964 24.7758 25.6164 24.7758C25.3284 24.7758 25.1684 24.6158 25.1684 24.3278C25.1684 24.0398 25.1684 23.7838 25.1684 23.4638C21.8084 23.4638 18.4804 23.4638 15.1204 23.4638C15.1204 23.7198 15.1204 23.9438 15.1204 24.1998C15.1204 24.2958 15.1204 24.4238 15.0884 24.5198C15.0244 24.6158 14.8964 24.7438 14.8004 24.7438C14.2564 24.7758 13.6804 24.7438 13.1364 24.7438C12.9444 24.7438 12.7844 24.5838 12.7844 24.3918C12.7844 22.9838 12.7524 21.5758 12.7844 20.1678C12.8164 19.4958 12.8804 18.7918 13.2004 18.1838C13.2324 17.9278 13.3924 17.7038 13.5204 17.4798ZM20.1124 17.4798C20.6564 17.4798 21.2004 17.4798 21.7444 17.4798C22.9284 17.4798 24.1124 17.4798 25.2964 17.4798C25.4884 17.4798 25.5844 17.4158 25.6164 17.2558C25.6164 17.1598 25.5844 17.0638 25.5204 16.9998C25.0724 16.2638 24.6244 15.5278 24.1444 14.7918C23.8564 14.3758 23.4404 14.1198 22.9284 14.1198C21.0404 14.1198 19.1204 14.1198 17.2324 14.1198C16.7204 14.1198 16.3044 14.3438 16.0164 14.7918C15.5364 15.5278 15.0884 16.2638 14.6404 16.9998C14.5764 17.0958 14.5764 17.2558 14.5764 17.3518C14.6084 17.5118 14.7684 17.4798 14.8964 17.4798C16.6564 17.4798 18.3844 17.4798 20.1124 17.4798ZM20.1124 22.5358C20.6564 22.5358 21.2004 22.5358 21.7124 22.5358C22.1284 22.5358 22.1924 22.5038 22.1924 22.0558C22.1924 21.6398 22.1284 21.5758 21.7124 21.5758C20.6564 21.5758 19.6004 21.5758 18.5764 21.5758C18.0324 21.5758 18.0004 21.6078 18.0004 22.1518C18.0004 22.4718 18.0964 22.5358 18.3844 22.5358C18.9604 22.5358 19.5364 22.5358 20.1124 22.5358ZM15.1204 20.5838C15.3764 20.5838 15.6324 20.6158 15.8884 20.5838C16.2084 20.5838 16.4004 20.3278 16.4324 20.0718C16.4644 19.8158 16.3364 19.5598 16.0484 19.4318C15.9524 19.3998 15.8564 19.3678 15.7924 19.3358C15.4084 19.2078 15.0244 19.0478 14.6084 18.9518C14.1604 18.8238 13.6804 19.1758 13.6164 19.6558C13.5524 20.0718 13.8724 20.5838 14.3204 20.5838C14.6084 20.5838 14.8644 20.5838 15.1204 20.5838ZM25.0724 20.5838C25.3604 20.5838 25.6164 20.6158 25.9044 20.5838C26.2564 20.5518 26.5764 20.1998 26.5764 19.8478C26.6084 19.2398 26.1284 18.8238 25.5204 18.9838C25.0084 19.1118 24.5284 19.3038 24.0484 19.4958C23.8244 19.5918 23.6964 19.8478 23.7284 20.0718C23.7604 20.3278 23.9524 20.5518 24.2084 20.5838C24.5284 20.5838 24.8164 20.5838 25.0724 20.5838Z" fill="white"/>
<path d="M8.65625 10.504C8.65625 9.25603 8.65625 8.00803 8.65625 6.76003C8.72025 6.76003 8.75225 6.72803 8.81625 6.72803C9.77625 6.72803 10.7043 6.72803 11.6643 6.79203C12.4003 6.85603 12.9762 7.20803 13.2322 7.94403C13.5842 8.93603 13.1683 10.056 12.0162 10.376C11.6322 10.472 11.1843 10.504 10.7683 10.504C10.0963 10.536 9.45625 10.504 8.78425 10.504C8.75225 10.536 8.72025 10.536 8.65625 10.504Z" fill="white"/>
</svg>
