<svg width="141" height="40" viewBox="0 0 141 40" fill="none" xmlns="http://www.w3.org/2000/svg">
<path d="M49.0594 20.4609H47.9506L46.9272 21.2805H46.7207V20.4609H45.9785V22.8289H46.7147V21.8862H46.9331L48.0075 22.8289H49.0938L47.5721 21.5819L49.0594 20.4609Z" fill="#878787"/>
<path d="M67.3894 20.4609H66.2687L65.2572 21.2805H65.0373V20.4609H64.3086V22.8289H65.0343V21.8862H65.2632L66.3376 22.8289H67.4239L65.8991 21.5805L67.3894 20.4609Z" fill="#878787"/>
<path d="M80.1082 20.4609H78.977L77.9655 21.2805H77.756V20.4609H77.0273V22.8289H77.753V21.8862H77.9565L79.0458 22.8289H80.1231L78.6074 21.5777L80.1082 20.4609Z" fill="#878787"/>
<path d="M49.7366 21.9869C49.7366 22.1879 49.6618 22.2276 49.5481 22.2276H49.3984V22.8291C49.3984 22.8291 49.6992 22.8291 49.8563 22.8149C50.0134 22.8022 50.1855 22.7357 50.2783 22.6055C50.3695 22.4753 50.4623 22.3054 50.4623 21.9657V21.0598H51.5995V22.8277H52.3297V20.4597H49.7366V21.9841V21.9869Z" fill="#878787"/>
<path d="M53.778 22.1679V20.4609H53.0508V22.8289H54.1416L55.4837 21.129V22.8289H56.2139V20.4609H55.1516L53.778 22.1679Z" fill="#878787"/>
<path d="M68.6037 22.1679V20.4609H67.875V22.8289H68.9673L70.308 21.129V22.8289H71.0396V20.4609H69.9758L68.6037 22.1679Z" fill="#878787"/>
<path d="M122.19 22.1679V20.4609H121.461V22.8289H122.553L123.894 21.129V22.8289H124.626V20.4609H123.562L122.19 22.1679Z" fill="#878787"/>
<path d="M129.783 22.1679V20.4609H129.055V22.8289H130.147L131.488 21.129V22.8289H132.219V20.4609H131.155L129.783 22.1679Z" fill="#878787"/>
<path d="M61.1154 22.1679V20.4609H60.3867V22.8289H61.479L62.8212 21.129V22.8289H63.5514V20.4609H62.4875L61.1154 22.1679Z" fill="#878787"/>
<path d="M58.941 21.3116H57.6662V20.4609H56.9375V22.8289H57.6662V21.9046H58.935V22.8289H59.6667V20.4609H58.941V21.3116Z" fill="#878787"/>
<path d="M82.6635 20.437H81.3048C81.3048 20.437 80.5312 20.437 80.5312 21.1688V22.1695C80.5312 22.1695 80.5312 22.8206 81.2195 22.8206H82.7218C82.7218 22.8206 83.4385 22.8206 83.4385 22.1426V21.9048H82.7128V22.0067C82.7128 22.2233 82.4839 22.2232 82.4839 22.2232H81.4889C81.2599 22.2232 81.2599 22.0067 81.2599 22.0067V21.2763C81.2599 21.0329 81.5173 21.0329 81.5173 21.0329H82.4824C82.7113 21.0329 82.7113 21.2495 82.7113 21.2495V21.3655H83.437V21.1688C83.437 21.1688 83.437 20.437 82.6635 20.437Z" fill="#878787"/>
<path d="M102.745 20.437H101.387C101.387 20.437 100.613 20.437 100.613 21.1688V22.1695C100.613 22.1695 100.613 22.8206 101.302 22.8206H102.804C102.804 22.8206 103.521 22.8206 103.521 22.1426V21.1688C103.521 21.1688 103.521 20.437 102.747 20.437H102.745ZM102.795 22.0067C102.795 22.2233 102.566 22.2232 102.566 22.2232H101.571C101.342 22.2232 101.342 22.0067 101.342 22.0067V21.2763C101.342 21.0329 101.599 21.0329 101.599 21.0329H102.564C102.793 21.0329 102.793 21.2495 102.793 21.2495V22.0067H102.795Z" fill="#878787"/>
<path d="M75.5517 20.437H74.193C74.193 20.437 73.4195 20.437 73.4195 21.1687V21.357H74.1467V21.2763C74.1467 21.0328 74.404 21.0328 74.404 21.0328H75.3691C75.5981 21.0328 75.5981 21.2494 75.5981 21.2494V21.3626H74.3262V21.8977H75.5981V22.0066C75.5981 22.2232 75.3691 22.2232 75.3691 22.2232H74.3741C74.1452 22.2232 74.1452 22.0066 74.1452 22.0066V21.9005H73.418V22.168C73.418 22.168 73.418 22.8191 74.1063 22.8191H75.6085C75.6085 22.8191 76.3253 22.8191 76.3253 22.1411V21.1673C76.3253 21.1673 76.3253 20.4355 75.5517 20.4355" fill="#878787"/>
<path d="M84.1055 22.8334H84.8357V21.0627H86.109V22.8334H86.8362V20.4668H84.1055V22.8334Z" fill="#878787"/>
<path d="M88.2861 21.9091H90.0607V21.3642H88.2861V21.0443H90.1146V20.4668H87.5664V22.8334H90.1206V22.2559H88.2861V21.9091Z" fill="#878787"/>
<path d="M115.138 21.9091H116.911V21.3642H115.138V21.0443H116.966V20.4668H114.418V22.8334H116.972V22.2559H115.138V21.9091Z" fill="#878787"/>
<path d="M92.53 20.4667H90.8242V22.8333H91.5574V22.1766C91.5574 22.1766 92.3968 22.1737 92.6347 22.1737C92.8726 22.1737 93.1135 22.0704 93.2422 21.9161C93.3709 21.7618 93.4083 21.5368 93.4083 21.3273C93.4083 21.1178 93.3769 20.9536 93.311 20.8263C93.2452 20.6989 93.0821 20.4653 92.5285 20.4653L92.53 20.4667ZM92.3938 21.5764H91.5514V21.064H92.3938C92.6512 21.064 92.6781 21.1504 92.6781 21.3047C92.6781 21.4589 92.6736 21.5764 92.3938 21.5764Z" fill="#878787"/>
<path d="M138.217 21.2735C137.979 21.2735 137.139 21.2735 137.139 21.2735V20.4568H136.406V22.8262H138.112C138.666 22.8262 138.829 22.6139 138.895 22.4978C138.96 22.3817 138.992 22.2317 138.992 22.042C138.992 21.8524 138.954 21.6471 138.826 21.507C138.697 21.3669 138.456 21.2721 138.218 21.2721L138.217 21.2735ZM137.977 22.226H137.135V21.875H137.977C138.257 21.875 138.26 21.9203 138.26 22.0604C138.26 22.2006 138.235 22.226 137.977 22.226Z" fill="#878787"/>
<path d="M93.957 21.0627H94.9371V22.8334H95.6598V21.0627H96.6399V20.4668H93.957V21.0627Z" fill="#878787"/>
<path d="M99.1998 21.3033H97.9234V20.4668H97.1992V22.8334H97.9234V21.8992H99.1998V22.8334H99.924V20.4668H99.1998V21.3033Z" fill="#878787"/>
<path d="M106.663 20.4668H106.328L104.955 22.1667V20.4668H104.23V22.8334H104.524H104.955H105.314L106.663 21.1405V22.8334H107.388V20.4668H106.704H106.663Z" fill="#878787"/>
<path d="M111.755 22.1481L111.016 20.4666H109.848V22.8332H110.575V21.2253L111.311 22.8332H112.209L112.942 21.2126V22.8332H113.671V20.4624H112.487L111.755 22.1481Z" fill="#878787"/>
<path d="M140.092 20.4624H139.371V22.829H140.092V20.4624Z" fill="#878787"/>
<path d="M120.541 20.4526H118.047V21.585C118.047 21.585 118.056 21.7789 117.99 21.953C117.924 22.1271 117.818 22.2219 117.818 22.2219H117.605V23.357H118.291V22.8305H120.131V23.357H120.802V22.2304H120.541V20.4541V20.4526ZM119.821 22.229H118.62C118.62 22.229 118.692 22.1228 118.72 21.9827C118.749 21.8411 118.752 21.592 118.752 21.592V21.0584H119.82V22.2304L119.821 22.229Z" fill="#878787"/>
<path d="M128.075 20.4568H127.348V22.2289H126.075V20.461H125.348V22.8177H127.653V23.3555H128.336V22.2331H128.075V20.4568Z" fill="#878787"/>
<path d="M134.949 21.3075H133.668V20.4668H132.945V22.8334H133.668V21.9034H134.949V22.8334H135.672V20.4668H134.949V21.3075Z" fill="#878787"/>
<path d="M104.993 19.7972C105.11 19.8835 105.288 19.9147 105.46 19.9246C105.601 19.9331 105.695 19.9359 105.725 19.9359C105.755 19.9359 105.849 19.9345 105.99 19.9246C106.162 19.9133 106.34 19.8835 106.456 19.7972C106.575 19.7109 106.614 19.5424 106.614 19.4363V19.2891H105.988C105.988 19.2891 105.985 19.3301 105.985 19.374C105.985 19.4179 105.979 19.483 105.928 19.5014C105.888 19.5169 105.779 19.5184 105.734 19.5184H105.714C105.669 19.5184 105.56 19.5169 105.52 19.5014C105.467 19.483 105.463 19.4179 105.463 19.374C105.463 19.3301 105.46 19.2891 105.46 19.2891H104.836V19.4363C104.836 19.5424 104.876 19.7094 104.993 19.7972Z" fill="#878787"/>
<path d="M58.46 18.5349H60.7313V9.5513H56.5028L53.3546 16.7486H53.217L50.0703 9.5513H45.8418V18.5349H48.1132V11.3375H48.4139L51.6713 18.5349H54.9018L58.1577 11.3375H58.4585V18.5349H58.46ZM62.4566 18.5349H72.1585V16.8392H64.7279V14.7812H71.9265V13.2144H64.7279V11.247H72.1585V9.5513H62.4566V18.5349ZM77.1022 16.76C77.3027 16.2037 77.6304 15.2936 77.795 14.8237C78.0434 14.1188 78.3067 13.0686 78.8903 12.5024C79.4738 11.9363 80.1172 11.7692 81.4758 11.7692H82.5831V16.76H77.1007H77.1022ZM73.5784 18.5462H84.8604L84.8559 9.57112H81.3322C80.4419 9.57112 79.5351 9.57112 78.5416 10.041C77.5481 10.5109 76.4453 11.6093 75.977 12.9921C75.6598 13.9306 74.9431 15.9871 74.6737 16.76H73.5799V18.5462H73.5784ZM88.9378 11.3375H94.8092V9.5513H86.6665V18.5349H88.9378V11.3375ZM103.286 14.0495C103.286 15.5526 101.997 16.7713 100.408 16.7713C98.8193 16.7713 97.531 15.5526 97.531 14.0495C97.531 12.5463 98.8193 11.3276 100.408 11.3276C101.997 11.3276 103.286 12.5463 103.286 14.0495ZM105.318 14.0495C105.318 11.4847 103.12 9.40552 100.408 9.40552C97.6971 9.40552 95.499 11.4847 95.499 14.0495C95.499 16.6142 97.6971 18.6934 100.408 18.6934C103.12 18.6934 105.318 16.6142 105.318 14.0495ZM114.629 12.6963C114.629 13.6673 114.301 14.0947 113.151 14.0947H109.361V11.3375H113.151C114.342 11.3375 114.629 11.8159 114.629 12.6963ZM116.9 12.6963C116.9 10.4317 115.956 9.5513 113.561 9.5513H107.088V18.5349H109.359V15.881H113.588C115.928 15.881 116.899 14.9751 116.899 12.6963H116.9ZM126.352 14.0495C126.352 15.5526 125.064 16.7713 123.475 16.7713C121.886 16.7713 120.598 15.5526 120.598 14.0495C120.598 12.5463 121.886 11.3276 123.475 11.3276C125.064 11.3276 126.352 12.5463 126.352 14.0495ZM128.384 14.0495C128.384 11.4847 126.186 9.40552 123.475 9.40552C120.764 9.40552 118.566 11.4847 118.566 14.0495C118.566 16.6142 120.764 18.6934 123.475 18.6934C126.186 18.6934 128.384 16.6142 128.384 14.0495ZM137.821 16.76H132.341C132.541 16.2037 132.867 15.2936 133.033 14.8237C133.282 14.1188 133.545 13.0686 134.129 12.5024C134.712 11.9363 135.356 11.7692 136.714 11.7692H137.82V16.76H137.821ZM140.093 18.5462V9.57112H136.569C135.679 9.57112 134.772 9.57112 133.778 10.041C132.785 10.5109 131.682 11.6093 131.214 12.9921C130.897 13.9306 130.18 15.9871 129.909 16.76H128.815V18.5462H140.091H140.093Z" fill="#007B99"/>
<path d="M17.4841 39.1757V28.4625L13.5159 30.5432V22.7797H0V21.8894H14.4571V29.0329L17.4841 27.4463V21.8894H20.1206V27.0825L18.4253 27.9714V37.7377L23.8149 35.1942V33.7505L21.2428 32.7526V21.8823H24.756V33.1546L25.8049 33.5622V21.8922H41.5623V22.7825H26.7461V34.8899L24.756 34.1171V35.7476L17.4841 39.18V39.1757ZM22.1854 32.1525L23.8164 32.7852V22.7684H22.1854V32.1511V32.1525ZM18.4268 22.7783V26.9509L19.1809 26.556V22.7783H18.4268Z" fill="#B2B2B2"/>
<path d="M41.5339 18.563H25.6224V6.97935L23.8134 6.52642V18.563H20.3794V4.35803L22.4757 4.88172V1.98581L17.0262 4.38492V10.7627L19.4368 9.54831V18.563H15.6871V12.8703L14.6427 13.3954V18.5616H0V17.2948H13.305V12.6339L15.6871 11.4336V3.57672L23.8134 0V5.21718L26.9616 6.00414V17.2962H41.5339V18.563ZM21.7171 17.2962H22.4742V6.19239L21.7171 6.00272V17.2962ZM17.0247 17.2962H18.0961V11.6558L17.0247 12.1951V17.2962Z" fill="#007B99"/>
</svg>
