<svg width="25" height="25" viewBox="0 0 25 25" fill="none" xmlns="http://www.w3.org/2000/svg">
<path d="M23.9697 3.15441C23.4961 2.87609 22.8857 3.03234 22.6025 3.50597L20.9619 6.29406H1.5332C0.981445 6.29406 0.537109 6.73839 0.537109 7.29015C0.537109 7.84191 0.981445 8.28625 1.5332 8.28625H7.08496L9.91211 11.4357L5.86914 15.9425C4.25781 16.006 2.96875 17.339 2.96875 18.965C2.96875 20.6349 4.32617 21.9923 5.99609 21.9923C7.66602 21.9923 9.02344 20.6349 9.02344 18.965C9.02344 18.0323 8.59863 17.1925 7.92969 16.6359L11.2598 12.9298L14.5654 16.6114C13.8672 17.1632 13.4277 18.0079 13.4277 18.9601C13.4277 20.63 14.7852 21.9874 16.4551 21.9874C18.125 21.9874 19.4824 20.63 19.4824 18.9601C19.4824 17.3536 18.2227 16.0353 16.6406 15.9425L12.5928 11.4357L15.4199 8.28625H21.5332C21.8848 8.28625 22.2119 8.1007 22.3926 7.79797L24.3262 4.5216C24.6045 4.04308 24.4482 3.43273 23.9697 3.15441ZM5.99121 19.9903C5.4248 19.9903 4.96094 19.5265 4.96094 18.9601C4.96094 18.3937 5.4248 17.9298 5.99121 17.9298C6.55762 17.9298 7.02148 18.3937 7.02148 18.9601C7.02148 19.5265 6.55762 19.9903 5.99121 19.9903ZM17.4854 18.9601C17.4854 19.5265 17.0215 19.9903 16.4551 19.9903C15.8887 19.9903 15.4248 19.5265 15.4248 18.9601C15.4248 18.3937 15.8887 17.9298 16.4551 17.9298C17.0215 17.9298 17.4854 18.3937 17.4854 18.9601ZM11.25 9.94152L9.76562 8.28625H12.7393L11.25 9.94152Z" fill="#007B99"/>
<path d="M16.9238 5.57129H19.3457C19.8975 5.57129 20.3418 5.12695 20.3418 4.5752C20.3418 4.02344 19.8975 3.5791 19.3457 3.5791H16.9238C16.3721 3.5791 15.9277 4.02344 15.9277 4.5752C15.9277 5.12695 16.3721 5.57129 16.9238 5.57129Z" fill="#007B99"/>
</svg>
