<svg width="38" height="39" viewBox="0 0 38 39" fill="none" xmlns="http://www.w3.org/2000/svg">
<path d="M0.195801 38.0355L2.85388 28.3832C1.21054 25.5501 0.348461 22.3416 0.357441 19.0616C0.357441 8.78364 8.76272 0.427246 19.0807 0.427246C24.0916 0.427246 28.7971 2.36664 32.3262 5.88795C35.8643 9.40926 37.813 14.0924 37.804 19.0705C37.804 29.3484 29.3987 37.7048 19.0717 37.7048H19.0628C15.9288 37.7048 12.8486 36.9183 10.1097 35.4347L0.195801 38.0355ZM10.5857 32.0654L11.1514 32.405C13.5401 33.8171 16.279 34.5589 19.0717 34.5678H19.0807C27.6566 34.5678 34.6431 27.6235 34.6431 19.0794C34.6431 14.9415 33.0267 11.0537 30.0902 8.12228C27.1537 5.19084 23.2385 3.58212 19.0807 3.58212C10.5048 3.57318 3.5184 10.5175 3.5184 19.0616C3.5184 21.9841 4.33558 24.8351 5.8981 27.3018L6.26628 27.8916L4.69478 33.6026L10.5857 32.0654Z" fill="white"/>
<path d="M0.851562 37.383L3.41984 28.0614C1.83038 25.3355 0.995242 22.2342 0.995242 19.0704C1.00422 9.14999 9.11316 1.07959 19.081 1.07959C23.9212 1.07959 28.4561 2.95643 31.8685 6.35261C35.2809 9.74879 37.1577 14.2711 37.1577 19.0794C37.1577 28.9998 29.0398 37.0702 19.081 37.0702H19.072C16.0457 37.0702 13.0733 36.3105 10.4332 34.8805L0.851562 37.383Z" fill="url(#paint0_linear_2020_123)"/>
<path d="M0.195801 38.0355L2.85388 28.3832C1.21054 25.5501 0.348461 22.3416 0.357441 19.0616C0.357441 8.78364 8.76272 0.427246 19.0807 0.427246C24.0916 0.427246 28.7971 2.36664 32.3262 5.88795C35.8643 9.40926 37.813 14.0924 37.804 19.0705C37.804 29.3484 29.3987 37.7048 19.0717 37.7048H19.0628C15.9288 37.7048 12.8486 36.9183 10.1097 35.4347L0.195801 38.0355ZM10.5857 32.0654L11.1514 32.405C13.5401 33.8171 16.279 34.5589 19.0717 34.5678H19.0807C27.6566 34.5678 34.6431 27.6235 34.6431 19.0794C34.6431 14.9415 33.0267 11.0537 30.0902 8.12228C27.1537 5.19084 23.2385 3.58212 19.0807 3.58212C10.5048 3.57318 3.5184 10.5175 3.5184 19.0616C3.5184 21.9841 4.33558 24.8351 5.8981 27.3018L6.26628 27.8916L4.69478 33.6026L10.5857 32.0654Z" fill="url(#paint1_linear_2020_123)"/>
<path fill-rule="evenodd" clip-rule="evenodd" d="M14.402 11.2684C14.0518 10.4908 13.6836 10.473 13.3514 10.464C13.082 10.4551 12.7677 10.4551 12.4534 10.4551C12.1391 10.4551 11.6362 10.5713 11.2052 11.036C10.7741 11.5007 9.5708 12.6268 9.5708 14.9237C9.5708 17.2117 11.2501 19.4282 11.4835 19.741C11.717 20.0538 14.7253 24.9067 19.4757 26.7746C23.4269 28.3297 24.2351 28.0169 25.0882 27.9365C25.9413 27.856 27.8541 26.8104 28.2492 25.72C28.6353 24.6297 28.6353 23.7002 28.5186 23.5036C28.4019 23.3069 28.0876 23.1908 27.6206 22.9584C27.1536 22.726 24.8548 21.5999 24.4237 21.439C23.9927 21.2871 23.6784 21.2067 23.3731 21.6714C23.0588 22.1362 22.1608 23.1818 21.8914 23.4946C21.622 23.8074 21.3436 23.8432 20.8766 23.6108C20.4097 23.3784 18.901 22.8869 17.114 21.2961C15.7221 20.0627 14.7792 18.5344 14.5098 18.0697C14.2404 17.6049 14.4829 17.3547 14.7163 17.1223C14.9229 16.9168 15.1833 16.5771 15.4168 16.309C15.6503 16.0409 15.7311 15.8443 15.8837 15.5315C16.0364 15.2187 15.9646 14.9506 15.8478 14.7182C15.7311 14.4947 14.8151 12.1889 14.402 11.2684Z" fill="white"/>
<defs>
<linearGradient id="paint0_linear_2020_123" x1="19.0037" y1="37.3812" x2="19.0037" y2="1.07832" gradientUnits="userSpaceOnUse">
<stop stop-color="#20B038"/>
<stop offset="1" stop-color="#60D66A"/>
</linearGradient>
<linearGradient id="paint1_linear_2020_123" x1="19.0036" y1="38.0319" x2="19.0036" y2="0.427246" gradientUnits="userSpaceOnUse">
<stop stop-color="#F9F9F9"/>
<stop offset="1" stop-color="white"/>
</linearGradient>
</defs>
</svg>
