<svg width="74" height="74" viewBox="0 0 74 74" fill="none" xmlns="http://www.w3.org/2000/svg">
<g clip-path="url(#clip0_1952_17475)">
<path d="M63.1646 63.163C77.614 48.7136 77.614 25.2864 63.1646 10.837C48.7152 -3.61235 25.2881 -3.61235 10.8387 10.837C-3.61067 25.2864 -3.61067 48.7136 10.8387 63.163C25.2881 77.6123 48.7152 77.6123 63.1646 63.163Z" fill="#F8C8C7"/>
<path d="M40.62 19.7284C41.3156 19.8468 41.915 19.7802 42.1 18.9514C42.47 17.279 41.8262 15.4216 40.5016 14.3412C39.3768 13.431 37.8894 13.0906 36.439 13.0092C23.7702 12.321 20.011 25.2044 21.1062 35.4312C23.0376 53.576 11.4492 53.8572 11.4492 53.8572C11.4492 53.8572 22.7712 64.4984 35.1144 49.4098C47.4576 34.3138 31.9768 27.5576 34.589 22.8438C35.4252 21.3416 36.7424 19.8246 38.4962 19.425C39.0808 19.2918 39.9096 19.6026 40.6274 19.721L40.62 19.7284Z" fill="#717171"/>
<path d="M38.4058 20.0244C38.5242 19.3362 38.7684 18.648 39.242 17.9672C40.5074 16.132 42.9642 15.0738 45.0806 15.7842C48.1442 16.8128 50.1274 20.5572 51.045 23.4506C52.266 27.2986 52.303 31.45 51.8812 35.4312C49.9498 53.576 61.5382 53.8571 61.5382 53.8571C61.5382 53.8571 50.2162 64.4983 37.873 49.4097C33.6698 44.2667 31.546 38.1618 34.6244 31.9531C35.5642 30.0662 36.8666 28.4012 37.8582 26.5512C38.9682 24.4718 38.0136 22.2518 38.3984 20.0244H38.4058Z" fill="#717171"/>
<path d="M60.23 59.866C58.9424 55.278 55.3608 51.689 50.7802 50.3792L42.3294 47.9668H31.6734L23.2226 50.3792C18.642 51.689 15.0678 55.278 13.7728 59.866L11.4492 63.7436C18.0944 70.0928 27.0854 74 37.0014 74C46.9174 74 55.9158 70.0928 62.5536 63.7436L60.23 59.866Z" fill="#717171"/>
<path d="M41.9823 41.1662H32.0219L30.4531 49.3802C30.4531 49.3802 33.2651 52.3254 37.0021 52.4808C40.7391 52.3254 43.5511 49.3802 43.5511 49.3802L41.9823 41.1662Z" fill="#EFF1F1"/>
<path d="M48.1373 29.637C48.1373 36.371 43.1497 45.3916 37.0003 45.3916C30.8509 45.3916 25.8633 36.371 25.8633 29.637C25.8633 22.903 30.8509 17.4418 37.0003 17.4418C43.1497 17.4418 48.1373 22.903 48.1373 29.637Z" fill="white"/>
<path d="M40.6182 19.7284C40.6182 19.7284 39.1604 29.0598 28.5636 35.2462C28.5636 35.2462 26.4694 38.1618 28.0382 41.1736C28.0382 41.1736 17.8336 29.2596 28.8226 18.4038C39.819 7.5406 58.6594 25.9962 46.4864 40.3892C46.4864 40.3892 43.741 38.073 44 33.6034C44.259 29.1338 44.2368 22.015 40.6108 19.7358L40.6182 19.7284Z" fill="#717171"/>
</g>
<defs>
<clipPath id="clip0_1952_17475">
<rect width="74" height="74" fill="white"/>
</clipPath>
</defs>
</svg>
